<?xml version="1.0" encoding="UTF-8"?>
<svg version="1.1" xmlns="http://www.w3.org/2000/svg" width="361" height="400">
<path d="M0 0 C9.45273583 2.42377842 15.87053863 7.9923054 21.26953125 15.9453125 C27.10599813 26.2480599 28.86756747 37.63855841 25.875 49.125 C22.54630072 58.77048676 16.95644574 67.31574999 7.7578125 72.1875 C6.88769531 72.5896875 6.88769531 72.5896875 6 73 C6.8371176 77.69350205 8.13982035 82.23089634 9.4375 86.8125 C11.05034234 92.5220576 12.58726117 98.23733976 14 104 C14.58322021 103.83991455 15.16644043 103.6798291 15.76733398 103.51489258 C26.71248208 100.99074634 38.63219112 102.57669733 48.19921875 108.3203125 C57.3968586 114.73238142 64.30448472 123.67682421 66.6796875 134.75390625 C68.24401362 145.72326623 66.80952188 157.06464991 60.3125 166.3125 C53.48664707 174.42463175 45.63557666 180.97059668 35 183 C21.7553673 183.90069409 11.72085422 182.30829558 0.875 174.07421875 C0.25625 173.71972656 -0.3625 173.36523438 -1 173 C-4.32090995 174.10696998 -4.58201438 174.49856338 -6.4375 177.25 C-9.435512 181.41685719 -12.77273293 185.17197012 -16.25 188.9375 C-17.04748657 189.80713379 -17.04748657 189.80713379 -17.86108398 190.69433594 C-21.744613 194.8723065 -21.744613 194.8723065 -24 196 C-23.31606031 199.31211245 -22.06261162 202.04001991 -20.5625 205.0625 C-15.29426707 216.57626123 -14.57621203 228.17005741 -19 240.125 C-23.57581435 250.18651686 -31.13735968 257.55834605 -41.1953125 261.9609375 C-51.28337226 265.5899755 -62.7094799 265.43753889 -72.57421875 261.2578125 C-82.65535508 256.03055662 -90.42770986 247.86048006 -94 237 C-95.43310592 231.5869542 -96.09737805 226.60735272 -96 221 C-96.81339844 220.97421875 -97.62679687 220.9484375 -98.46484375 220.921875 C-105.47506882 220.57491223 -112.05341559 219.73826877 -118.875 218.125 C-119.56327881 217.96354492 -120.25155762 217.80208984 -120.96069336 217.63574219 C-125.79591016 216.43870498 -130.36223995 214.81567787 -135 213 C-135.309375 214.2375 -135.309375 214.2375 -135.625 215.5 C-139.12810707 224.41699981 -146.02260279 231.34937488 -154.6875 235.3125 C-163.98137577 239.22484202 -175.41171731 239.61592023 -185 236.375 C-194.78489322 232.17937862 -200.49867325 225.76024724 -205.9375 216.8125 C-207.21494266 213.43103413 -207.17213488 212.3994196 -206 209 C-204.07131345 206.71128748 -202.16599586 204.67034392 -200.03076172 202.5925293 C-199.09643562 201.65973648 -199.09643562 201.65973648 -198.14323425 200.70809937 C-196.08123906 198.65398882 -194.00554605 196.6143101 -191.9296875 194.57421875 C-190.48962557 193.14416439 -189.05052165 191.71314473 -187.61233521 190.28120422 C-183.81940901 186.50922505 -180.01508726 182.74895666 -176.20782471 178.99145508 C-170.1326073 172.99142089 -164.07570792 166.97288381 -158.01703262 160.95615578 C-155.90703331 158.86373265 -153.79279981 156.77566996 -151.67770386 154.68840027 C-143.22351599 146.36407694 -143.22351599 146.36407694 -135.30688477 137.5332489 C-132.62810935 134.39048562 -129.61314645 131.57356809 -126.65625 128.6953125 C-123.98675315 126.10863427 -123.98675315 126.10863427 -122 123 C-120.3603125 123.185625 -120.3603125 123.185625 -118.6875 123.375 C-112.66045382 123.4399233 -107.97816151 120.07474681 -103 117 C-103.99 111.555 -103.99 111.555 -105 106 C-99.76824163 105.61718841 -96.62197306 106.78145293 -92 109 C-91.773125 108.360625 -91.54625 107.72125 -91.3125 107.0625 C-89.83944537 103.62537252 -87.95104071 100.61428842 -85.92578125 97.4765625 C-84.70885024 94.89968682 -84.70885024 94.89968682 -85.71496582 91.67381287 C-86 88 -86 88 -84.26916504 85.31385803 C-83.39981323 84.46528732 -82.53046143 83.61671661 -81.63476562 82.74243164 C-81.15847717 82.26658127 -80.68218872 81.7907309 -80.19146729 81.30046082 C-78.61445455 79.73410486 -77.0111343 78.19789887 -75.40625 76.66015625 C-74.29876403 75.5701534 -73.19311771 74.47827852 -72.0892334 73.3846283 C-69.17612867 70.50771939 -66.24030263 67.65516295 -63.29858398 64.80755615 C-59.75144298 61.36598195 -56.23028396 57.89787957 -52.70650482 54.43241787 C-49.95881123 51.73085599 -47.20725394 49.0337254 -44.4420166 46.35011292 C-39.59183042 41.63186188 -34.88139014 36.87659638 -30.4906311 31.72413635 C-28.27673285 29.16343408 -25.90572406 26.81176845 -23.49609375 24.43359375 C-23.00971939 23.95100601 -22.52334503 23.46841827 -22.02223206 22.97120667 C-20.49646412 21.45744481 -18.96744659 19.94703759 -17.4375 18.4375 C-8.39351446 9.52350928 -8.39351446 9.52350928 0 0 Z M-34.625 46 C-35.07875 46.99 -35.5325 47.98 -36 49 C-31.545 49.99 -31.545 49.99 -27 51 C-32.79522647 56.81841873 -38.59316525 62.63411544 -44.39456558 68.44637775 C-47.08843488 71.14546081 -49.78136798 73.84546419 -52.47216797 76.54760742 C-55.07001143 79.15633331 -57.67030532 81.76259352 -60.27230072 84.36717796 C-61.26350929 85.36023112 -62.25383874 86.35416259 -63.24326324 87.3489933 C-64.63150954 88.74452102 -66.02320566 90.13661432 -67.41503906 91.52856445 C-68.20557678 92.32132278 -68.9961145 93.11408112 -69.81060791 93.93086243 C-71.78550581 95.79728712 -73.78925462 97.42521896 -76 99 C-76.495 94.545 -76.495 94.545 -77 90 C-79.64684605 91.59913615 -81.20517801 92.55632108 -83 95 C-83.91446122 100.49500574 -83.0840307 105.5798465 -82 111 C-77.71 111.33 -73.42 111.66 -69 112 C-69 112.66 -69 113.32 -69 114 C-70.051875 114.4021875 -70.051875 114.4021875 -71.125 114.8125 C-74.1649824 116.0681449 -77.0727774 117.50235123 -80 119 C-78.58192622 123.47238653 -76.88695626 127.71146306 -75 132 C-75.66386719 131.62746094 -76.32773438 131.25492187 -77.01171875 130.87109375 C-78.33623047 130.16146484 -78.33623047 130.16146484 -79.6875 129.4375 C-80.99267578 128.72400391 -80.99267578 128.72400391 -82.32421875 127.99609375 C-85.47516329 126.8231144 -86.88225176 126.7632932 -90 128 C-91.67400293 129.97411967 -91.67400293 129.97411967 -92.8125 132.4375 C-93.23144531 133.24058594 -93.65039062 134.04367188 -94.08203125 134.87109375 C-95.13198395 136.91969295 -95.13198395 136.91969295 -95 139 C-95.66 139 -96.32 139 -97 139 C-97.33 134.38 -97.66 129.76 -98 125 C-100.75164432 124.86482097 -103.49664521 124.76584749 -106.25 124.6875 C-107.02730469 124.64560547 -107.80460937 124.60371094 -108.60546875 124.56054688 C-110.84351137 124.51272545 -112.80959674 124.53023077 -115 125 C-117.58567883 127.34129854 -117.58567883 127.34129854 -119 130 C-116.36 130.66 -113.72 131.32 -111 132 C-122.06691601 144.14829865 -133.15588061 156.27984903 -144.85546875 167.82421875 C-147.51815093 170.5257014 -149.99522316 173.35771924 -152.4609375 176.23828125 C-154.53424056 178.61152916 -156.73833739 180.80687262 -159 183 C-161.04698414 180.95301586 -160.70045693 176.69588759 -161 174 C-163.88767899 175.29447679 -165.9858727 176.53868763 -168 179 C-168.08180672 181.97425876 -168.00747039 184.68109327 -167.75 187.625 C-167.69714844 188.41390625 -167.64429688 189.2028125 -167.58984375 190.015625 C-167.63081881 193.82280544 -167.63081881 193.82280544 -166 197 C-160.60314205 197.9523867 -155.47027874 198.47898958 -150 198 C-146.94638411 195.8081713 -145.44513133 193.43971363 -144 190 C-146.97 190 -149.94 190 -153 190 C-153 188 -153 188 -151.71484375 186.5546875 C-151.12832031 186.00039063 -150.54179687 185.44609375 -149.9375 184.875 C-147.47140631 182.48230196 -145.15177469 180.06412686 -142.9375 177.4375 C-139.48605308 173.42255154 -135.76036891 169.72160728 -132 166 C-127.818966 161.85745841 -123.73475113 157.71385108 -119.9296875 153.21875 C-117.0505393 149.9083124 -114.05249911 146.71022227 -111.0625 143.5 C-110.46945068 142.86320312 -109.87640137 142.22640625 -109.26538086 141.5703125 C-107.84448524 140.04603741 -106.42237048 138.52289892 -105 137 C-102.95301586 139.04698414 -103.29954307 143.30411241 -103 146 C-100.69 144.35 -98.38 142.7 -96 141 C-95.01 143.31 -94.02 145.62 -93 148 C-90.98332607 145.43332409 -89.41791563 142.93446886 -88 140 C-80.34747431 162.56575811 -73.15844049 185.27365661 -66 208 C-69.3 206.68 -72.6 205.36 -76 204 C-75.73038452 208.74367011 -75.73038452 208.74367011 -74 213 C-68.8112558 216.30753531 -63.0204845 217.93167003 -57 219 C-51.21374695 211.16613066 -51.21374695 211.16613066 -49.13671875 202.06640625 C-49.91401308 199.86817568 -50.75177983 197.96594676 -52 196 C-54.41396234 198.89675481 -56.38617243 201.59787701 -58 205 C-61.18791144 197.40539032 -63.80506162 189.69219302 -66.29296875 181.84375 C-66.89099345 179.97391999 -67.48901971 178.10409048 -68.08714008 176.23429108 C-68.91379096 173.64704673 -69.73714832 171.05875929 -70.56048584 168.47045898 C-72.01296442 163.90588986 -73.46942724 159.34259283 -74.92781067 154.77990723 C-75.70201703 152.35658383 -76.47443934 149.93268961 -77.24491882 147.50817871 C-77.76599968 145.87507751 -77.76599968 145.87507751 -78.29760742 144.20898438 C-78.60309006 143.24875366 -78.90857269 142.28852295 -79.22331238 141.29919434 C-79.93838652 139.00869502 -79.93838652 139.00869502 -81 137 C-79.906875 137.495 -78.81375 137.99 -77.6875 138.5 C-74.20033755 140.18839906 -74.20033755 140.18839906 -71 140 C-71.33 138.35 -71.66 136.7 -72 135 C-69.69 135.33 -67.38 135.66 -65 136 C-66.32 133.03 -67.64 130.06 -69 127 C-66.56286621 127.66467285 -66.56286621 127.66467285 -64.12573242 128.3293457 C-63.06009567 128.61997391 -61.99445892 128.91060211 -60.89653015 129.21003723 C-59.72797989 129.52873276 -58.55942963 129.84742828 -57.35546875 130.17578125 C-56.16077469 130.5016069 -54.96608063 130.82743256 -53.73518372 131.16313171 C-52.49806137 131.50052872 -51.26093903 131.83792572 -49.98632812 132.18554688 C-49.34951961 132.35922193 -48.71271109 132.53289698 -48.05660534 132.71183491 C-46.75282478 133.06741142 -45.44904423 133.42298794 -44.14526367 133.77856445 C-43.49920166 133.95476318 -42.85313965 134.13096191 -42.1875 134.3125 C-38.35253906 135.35839844 -38.35253906 135.35839844 -34.51757812 136.40429688 C-32.65641106 136.91188789 -32.65641106 136.91188789 -30.75764465 137.42973328 C-28.38239034 138.07752991 -26.00713603 138.72532654 -23.63188171 139.37312317 C-22.5315712 139.67320786 -21.43126068 139.97329254 -20.29760742 140.2824707 C-15.1802419 141.67811584 -10.06287638 143.07376099 -4.94551086 144.46940613 C-4.30349228 144.64450211 -3.66147369 144.81959808 -3 145 C-3.825 145.763125 -4.65 146.52625 -5.5 147.3125 C-8.34055197 149.75434142 -8.34055197 149.75434142 -8 153 C-4.80601028 154.04418895 -3.27293252 154.47606291 0 154 C4.33777075 151.37617769 8.15237141 148.28972245 12 145 C10.16836955 139.1541888 8.04343479 133.68511031 4 129 C1.06224694 127.83229599 -0.77420024 127.88876553 -4 128 C-2.02 132.455 -2.02 132.455 0 137 C-6.55284762 135.74303117 -12.98247444 134.29469559 -19.41796875 132.5390625 C-20.27828201 132.3072226 -21.13859528 132.07538269 -22.02497864 131.83651733 C-24.74664897 131.10237639 -27.46709685 130.36382106 -30.1875 129.625 C-31.99015247 129.13771772 -33.79288634 128.65073648 -35.59570312 128.1640625 C-39.09067921 127.22035321 -42.5852581 126.2751936 -46.07958984 125.32910156 C-52.71485105 123.53441768 -59.35670136 121.7646759 -66 120 C-65.21625 119.38125 -64.4325 118.7625 -63.625 118.125 C-61.03162353 116.10141339 -61.03162353 116.10141339 -59 114 C-60.98 113.34 -62.96 112.68 -65 112 C-63.68 110.02 -62.36 108.04 -61 106 C-62.11375 105.855625 -63.2275 105.71125 -64.375 105.5625 C-68 105 -68 105 -70 104 C-67.67104031 101.64147344 -65.3360189 99.28903326 -63 96.9375 C-62.35160156 96.28072266 -61.70320313 95.62394531 -61.03515625 94.94726562 C-57.8826915 91.77919461 -54.70831009 88.70635684 -51.3046875 85.80859375 C-45.25294885 80.5921134 -39.73675864 74.80444786 -34.125 69.125 C-31.88047379 66.85390387 -29.63265749 64.58613825 -27.3828125 62.3203125 C-26.87138702 61.80058868 -26.35996155 61.28086487 -25.83303833 60.74539185 C-22.22551548 57.11275774 -22.22551548 57.11275774 -20 56 C-20 58.97 -20 61.94 -20 65 C-17.08482708 63.92598892 -15.22189824 63.22189824 -13 61 C-13.01748219 58.08047432 -13.13944633 55.27702115 -13.375 52.375 C-13.43171875 51.57320312 -13.4884375 50.77140625 -13.546875 49.9453125 C-13.68847982 47.96284502 -13.84302259 45.98130949 -14 44 C-25.2852184 41.63112558 -25.2852184 41.63112558 -34.625 46 Z " fill="#F0ECDD" transform="translate(274,114)"/>
<path d="M0 0 C8.78570879 8.80234839 10.38179975 18.18594693 10.4168396 30.14680481 C10.41146754 31.71896641 10.40531401 33.29112551 10.3984375 34.86328125 C10.40046285 36.5031904 10.40337812 38.14309866 10.40713501 39.78300476 C10.41154041 43.20983507 10.40518772 46.63642968 10.39111328 50.06323242 C10.37406314 54.42380568 10.38384731 58.78382311 10.40183067 63.1443758 C10.41275191 66.52904834 10.40918359 69.91359254 10.4014473 73.29826927 C10.39946612 74.90439103 10.40183008 76.51052498 10.40888596 78.11663246 C10.45595736 91.84526261 9.56086013 105.44830134 0.0625 116.19140625 C-9.29474084 125.264588 -19.75536665 126.58195293 -32.28498459 126.4858551 C-34.64217739 126.46833192 -36.99817154 126.4762396 -39.3553772 126.4901123 C-45.20648977 126.51950092 -51.05736023 126.50663384 -56.9085083 126.49493408 C-61.86775189 126.48666608 -66.82646412 126.49492313 -71.78563309 126.52406311 C-74.08387563 126.53105362 -76.38112675 126.51461615 -78.67929077 126.49694824 C-90.53991243 126.49856267 -101.76459903 128.04117935 -111.06640625 136.01171875 C-119.35265566 144.53232673 -122.96693047 154.31838022 -123.31640625 166.05078125 C-123.33718735 166.70958786 -123.35796844 167.36839447 -123.37937927 168.04716492 C-123.44435489 170.13551185 -123.50351575 172.22397612 -123.5625 174.3125 C-123.60573479 175.7350378 -123.6493506 177.15756406 -123.69335938 178.58007812 C-123.79998216 182.05326297 -123.90139348 185.52657726 -124 189 C-127.93724069 189.11786788 -131.87401761 189.18780174 -135.8125 189.25 C-136.91271484 189.28351563 -138.01292969 189.31703125 -139.14648438 189.3515625 C-148.80958735 189.46558141 -158.15745114 187.7758421 -165.3828125 180.87890625 C-181.21396305 162.48570959 -183.68642634 139.28091003 -182 116 C-181.26663952 110.45835473 -179.82111159 105.28689488 -178 100 C-177.54947266 98.57880859 -177.54947266 98.57880859 -177.08984375 97.12890625 C-173.62961235 87.2874689 -166.27438349 78.09654722 -157.11328125 72.9375 C-151.00943088 70.18348508 -145.21946104 69.85621201 -138.6171875 69.87402344 C-137.78568176 69.8721553 -136.95417603 69.87028717 -136.09747314 69.86836243 C-134.29742746 69.86436864 -132.49737674 69.86228453 -130.69732666 69.86190033 C-126.86921735 69.85847506 -123.04127643 69.83710544 -119.21322632 69.81666946 C-112.09069498 69.77868022 -104.96834748 69.74738936 -97.84570312 69.74951172 C-92.88598923 69.75029822 -87.92689762 69.72696728 -82.96734619 69.6876297 C-81.07915036 69.67716371 -79.19088276 69.67565007 -77.30267334 69.68328094 C-74.66203247 69.69289166 -72.02328252 69.67174516 -69.3828125 69.64355469 C-68.21531464 69.65884972 -68.21531464 69.65884972 -67.02423096 69.67445374 C-63.02904726 69.59799129 -61.20300579 69.16106669 -58.03466797 66.64727783 C-55.67946414 63.58295531 -55.08016865 61.84809505 -55 58 C-56.02485978 53.99372993 -57.47837381 52.1343189 -61 50 C-63.94309863 49.01896712 -65.9496903 48.84778313 -69.0222168 48.79467773 C-70.55346443 48.7647599 -70.55346443 48.7647599 -72.11564636 48.73423767 C-73.21572525 48.71752518 -74.31580414 48.70081268 -75.44921875 48.68359375 C-76.5769722 48.66281265 -77.70472565 48.64203156 -78.86665344 48.62062073 C-82.4735396 48.55517153 -86.08049929 48.49626156 -89.6875 48.4375 C-92.13086702 48.39431039 -94.57422656 48.35069596 -97.01757812 48.30664062 C-103.01164074 48.19949484 -109.00577671 48.09771971 -115 48 C-115.09976706 43.60756315 -115.17188558 39.21574728 -115.21972656 34.82250977 C-115.23969458 33.33183282 -115.2668792 31.8412327 -115.30175781 30.35083008 C-115.57162565 18.51236303 -114.42665457 9.76415032 -106.01953125 0.84375 C-81.47849925 -21.56121538 -25.58243462 -20.14616727 0 0 Z M-98.8125 14.3125 C-100.26734528 17.60504457 -100.58216491 19.43423995 -100 23 C-97.98934744 26.33014331 -96.73731173 28.36952397 -93.0625 29.703125 C-89.67179884 30.29392899 -87.45059984 30.16021327 -84.1875 29 C-81.1635878 26.23528027 -80.11537754 23.9366266 -79 20 C-79.54660665 15.39288684 -80.29284563 13.61286712 -83.8125 10.5625 C-90.05414775 7.50286875 -94.50497082 8.81668691 -98.8125 14.3125 Z " fill="#F1EDDE" transform="translate(207,53)"/>
<path d="M0 0 C1.0686731 -0.00021904 1.0686731 -0.00021904 2.15893555 -0.0004425 C4.51264496 0.00025388 6.86627513 0.00803347 9.2199707 0.01586914 C10.8523606 0.01773429 12.48475106 0.01915774 14.11714172 0.02015686 C18.4128677 0.02397438 22.70855985 0.03379815 27.00427246 0.04486084 C31.38801618 0.0550914 35.77176536 0.05965801 40.15551758 0.06469727 C48.75644456 0.07542109 57.35734405 0.09248834 65.95825195 0.11352539 C62.0886994 4.74355773 58.07500716 9.13560161 53.78857422 13.38085938 C53.2039743 13.96399902 52.61937439 14.54713867 52.01705933 15.14794922 C50.75945225 16.40177917 49.50069232 17.65445369 48.24087715 18.90606499 C46.24075954 20.89329945 44.24388706 22.88374536 42.24778748 24.87501526 C37.29091919 29.81858587 32.32861394 34.75668721 27.36645508 39.69494629 C23.16594472 43.87564066 18.96754615 48.05843472 14.77186394 52.24397469 C12.81591731 54.19349558 10.85695564 56.13995057 8.89784241 58.08628845 C3.5375009 63.42474098 -1.76693687 68.74494258 -6.67185974 74.51210022 C-10.16302109 78.59333344 -14.06048494 82.31684624 -17.85424805 86.11352539 C-18.71211914 86.98364258 -19.56999023 87.85375977 -20.45385742 88.75024414 C-21.27305664 89.57137695 -22.09225586 90.39250977 -22.9362793 91.23852539 C-23.67724854 91.98360352 -24.41821777 92.72868164 -25.18164062 93.49633789 C-27.04174805 95.11352539 -27.04174805 95.11352539 -29.04174805 95.11352539 C-30.15967386 91.75974794 -30.18232502 89.2085521 -30.20288086 85.67358398 C-30.20784576 85.02435974 -30.21281067 84.3751355 -30.21792603 83.70623779 C-30.23252949 81.55813532 -30.23934874 79.41010686 -30.24487305 77.26196289 C-30.25062868 75.76323445 -30.25638636 74.26450601 -30.262146 72.76577759 C-30.27265268 69.62013405 -30.27849663 66.47451603 -30.28198242 63.32885742 C-30.28744789 59.31761118 -30.31143512 55.30670769 -30.33995438 51.29556847 C-30.35867841 48.1966965 -30.36379165 45.09790521 -30.3653183 41.99898148 C-30.36832648 40.52154301 -30.37629232 39.04410533 -30.38950348 37.56672287 C-30.49443519 24.92353157 -29.3707502 16.64707333 -20.4597168 7.28540039 C-14.40520194 1.84709625 -8.02653382 -0.01381503 0 0 Z " fill="#F2EEDE" transform="translate(123.041748046875,188.886474609375)"/>
<path d="M0 0 C4.62 -0.103125 9.24 -0.20625 14 -0.3125 C15.44117188 -0.35802002 16.88234375 -0.40354004 18.3671875 -0.45043945 C26.20298426 -0.53497095 30.84701619 0.01639704 37 5 C35.72132354 7.80742907 34.40106456 9.84334421 32.20605469 12.00512695 C31.64497009 12.56283279 31.0838855 13.12053864 30.50579834 13.69514465 C29.90060364 14.28687973 29.29540894 14.87861481 28.671875 15.48828125 C28.04524963 16.10970505 27.41862427 16.73112885 26.77301025 17.37138367 C24.77003795 19.35657286 22.76052476 21.33496229 20.75 23.3125 C18.75459065 25.28013495 16.7607145 27.24926136 14.76983643 29.22148132 C13.5327132 30.44652026 12.29292833 31.66887954 11.04998779 32.88801575 C7.55218334 36.34600126 4.29464853 39.91164762 1.16900635 43.71086121 C0.78323425 44.13627701 0.39746216 44.56169281 0 45 C-0.33 45 -0.66 45 -1 45 C-0.67 30.15 -0.34 15.3 0 0 Z " fill="#EEEBDE" transform="translate(227,107)"/>
<path d="M0 0 C0.99 0.33 1.98 0.66 3 1 C1.35 2.98 -0.3 4.96 -2 7 C-0.68 7.99 0.64 8.98 2 10 C1.01773438 10.65355469 0.03546875 11.30710938 -0.9765625 11.98046875 C-2.89292458 13.57743715 -3.86471571 14.47740772 -4.49511719 16.91259766 C-4.58962436 19.07254392 -4.52532406 21.15592794 -4.375 23.3125 C-4.34792969 24.05306641 -4.32085937 24.79363281 -4.29296875 25.55664062 C-4.22268284 27.37235998 -4.11507089 29.18656801 -4 31 C-2.96939453 30.98259766 -2.96939453 30.98259766 -1.91796875 30.96484375 C-1.01691406 30.95582031 -0.11585938 30.94679687 0.8125 30.9375 C1.70582031 30.92589844 2.59914062 30.91429687 3.51953125 30.90234375 C6 31 6 31 9 32 C9 32.66 9 33.32 9 34 C7.54462432 34.83848804 6.08559627 35.67063934 4.625 36.5 C3.81289062 36.9640625 3.00078125 37.428125 2.1640625 37.90625 C0 39 0 39 -2 39 C-1.6390625 39.68707031 -1.278125 40.37414062 -0.90625 41.08203125 C-0.4421875 41.98308594 0.021875 42.88414062 0.5 43.8125 C0.9640625 44.70582031 1.428125 45.59914062 1.90625 46.51953125 C3 49 3 49 3 52 C0.33731408 51.48794501 -1.56273686 50.70690789 -4 49.4375 C-7.04677388 47.71191988 -7.04677388 47.71191988 -11 48 C-12.98 51.63 -14.96 55.26 -17 59 C-17.66 59 -18.32 59 -19 59 C-19.33 54.38 -19.66 49.76 -20 45 C-22.77236494 45.08691739 -25.54147078 45.19377361 -28.3125 45.3125 C-29.09818359 45.33505859 -29.88386719 45.35761719 -30.69335938 45.38085938 C-31.45068359 45.41630859 -32.20800781 45.45175781 -32.98828125 45.48828125 C-34.03302612 45.52755737 -34.03302612 45.52755737 -35.09887695 45.56762695 C-37.49350359 46.11223768 -38.43272547 47.15829162 -40 49 C-39.34 49.66 -38.68 50.32 -38 51 C-39.32 51 -40.64 51 -42 51 C-42 50.34 -42 49.68 -42 49 C-45.465 49.495 -45.465 49.495 -49 50 C-47.6028395 47.36688983 -46.16045594 45.07087606 -44 43 C-40.375 42.9375 -40.375 42.9375 -38.3359375 43.15234375 C-33.40202945 42.83056714 -29.12217254 39.54604774 -25 37 C-25.66 33.37 -26.32 29.74 -27 26 C-21.76824163 25.61718841 -18.62197306 26.78145293 -14 29 C-13.773125 28.360625 -13.54625 27.72125 -13.3125 27.0625 C-12.15572048 24.36334778 -10.84493251 22.11520283 -9.3125 19.625 C-7.10765315 15.84383663 -7.10765315 15.84383663 -7.6875 11.4375 C-8 8 -8 8 -6.3046875 5.7890625 C-4.26789131 3.76646001 -2.19481177 1.84902085 0 0 Z " fill="#E8E3D5" transform="translate(196,194)"/>
<path d="M0 0 C0.33 0 0.66 0 1 0 C1.33 21.78 1.66 43.56 2 66 C2.99 66.33 3.98 66.66 5 67 C4.34 68.32 3.68 69.64 3 71 C2.34 71 1.68 71 1 71 C-0.13502438 67.59492687 -0.12016228 65.00779288 -0.11352539 61.41723633 C-0.11367142 60.75355545 -0.11381744 60.08987457 -0.1139679 59.40608215 C-0.11327182 57.21469848 -0.1054937 55.02340005 -0.09765625 52.83203125 C-0.09579099 51.31174262 -0.09436759 49.79145339 -0.09336853 48.27116394 C-0.08955188 44.27135557 -0.07972885 40.27158356 -0.06866455 36.27178955 C-0.05843213 32.18966158 -0.05386698 28.10752773 -0.04882812 24.02539062 C-0.03810583 16.01691041 -0.02103961 8.00845973 0 0 Z " fill="#D7D4C6" transform="translate(93,213)"/>
<path d="M0 0 C0.99 0.33 1.98 0.66 3 1 C1.35 2.98 -0.3 4.96 -2 7 C-0.68 7.99 0.64 8.98 2 10 C0.50260417 11.20442708 -0.99479167 12.40885417 -2.4921875 13.61328125 C-4.25292107 15.12270545 -4.25292107 15.12270545 -6 18 C-7.27158008 14.62754848 -8.11286191 11.62184114 -8 8 C-5.79854806 4.73433907 -3.1104423 2.38956726 0 0 Z " fill="#E7E4D8" transform="translate(196,194)"/>
<path d="M0 0 C1.10279297 0.10634766 2.20558594 0.21269531 3.34179688 0.32226562 C5.02499023 0.44118164 5.02499023 0.44118164 6.7421875 0.5625 C9.50871688 0.76263191 12.26822785 0.99600561 15.02929688 1.25976562 C15.02929688 1.58976563 15.02929688 1.91976562 15.02929688 2.25976562 C13.83691406 2.29714844 12.64453125 2.33453125 11.41601562 2.37304688 C9.84957788 2.43870594 8.28317303 2.50515331 6.71679688 2.57226562 C5.93111328 2.59482422 5.14542969 2.61738281 4.3359375 2.640625 C3.57861328 2.67607422 2.82128906 2.71152344 2.04101562 2.74804688 C0.99627075 2.787323 0.99627075 2.787323 -0.06958008 2.82739258 C-2.46420671 3.37200331 -3.40342859 4.41805725 -4.97070312 6.25976562 C-4.31070313 6.91976562 -3.65070313 7.57976562 -2.97070312 8.25976562 C-4.29070312 8.25976562 -5.61070312 8.25976562 -6.97070312 8.25976562 C-6.97070312 7.59976563 -6.97070312 6.93976563 -6.97070312 6.25976562 C-9.28070313 6.58976563 -11.59070313 6.91976562 -13.97070312 7.25976562 C-10.46033132 0.15185702 -7.74628906 -0.49145641 0 0 Z " fill="#AFABA3" transform="translate(160.970703125,236.740234375)"/>
<path d="M0 0 C0 5.50953548 -5.30481651 9.23079897 -9 13 C-11.60105691 15.41740265 -14.25823391 17.74383281 -17 20 C-17.66 19.67 -18.32 19.34 -19 19 C-12.73 12.73 -6.46 6.46 0 0 Z " fill="#C8C7BB" transform="translate(258,131)"/>
<path d="M0 0 C0.66 0.33 1.32 0.66 2 1 C1.30132812 1.67546875 0.60265625 2.3509375 -0.1171875 3.046875 C-1.02726563 3.93890625 -1.93734375 4.8309375 -2.875 5.75 C-3.77992188 6.63171875 -4.68484375 7.5134375 -5.6171875 8.421875 C-7.64542996 10.61636684 -8.88880413 12.2667136 -10 15 C-9.34 15.66 -8.68 16.32 -8 17 C-10.875 17.625 -10.875 17.625 -14 18 C-14.66 17.34 -15.32 16.68 -16 16 C-10.72 10.72 -5.44 5.44 0 0 Z " fill="#C5C2B6" transform="translate(219,202)"/>
<path d="M0 0 C0 3.67819168 -0.76843318 4.22382655 -3.1875 6.875 C-3.82171875 7.57367188 -4.4559375 8.27234375 -5.109375 8.9921875 C-7.35961863 11.38190904 -9.64357276 13.71497964 -12 16 C-12.99 15.67 -13.98 15.34 -15 15 C-10.05 10.05 -5.1 5.1 0 0 Z " fill="#D0CCC0" transform="translate(216,174)"/>
<path d="M0 0 C0 3 0 3 -2 6 C-0.68 6.66 0.64 7.32 2 8 C-1.375 8.625 -1.375 8.625 -5 9 C-5.66 8.34 -6.32 7.68 -7 7 C-4.69 4.69 -2.38 2.38 0 0 Z " fill="#D1CEC0" transform="translate(126,296)"/>
<path d="M0 0 C0.33 0.66 0.66 1.32 1 2 C0.67 2.99 0.34 3.98 0 5 C0.99 5.33 1.98 5.66 3 6 C2.34 7.98 1.68 9.96 1 12 C-1.32101984 8.51847024 -1.69903201 6.13830989 -2 2 C-1.34 1.34 -0.68 0.68 0 0 Z " fill="#BEBCB2" transform="translate(190,200)"/>
<path d="M0 0 C0.33 0 0.66 0 1 0 C1.33 1.65 1.66 3.3 2 5 C2.99 5.33 3.98 5.66 5 6 C4.34 7.32 3.68 8.64 3 10 C2.34 10 1.68 10 1 10 C-0.1577506 6.52674819 -0.06866652 3.63932552 0 0 Z " fill="#CBC8BB" transform="translate(93,274)"/>
<path d="M0 0 C0.66 0.33 1.32 0.66 2 1 C1.60196439 3.88575819 1.20990931 4.82189513 -1.0625 6.75 C-1.701875 7.1625 -2.34125 7.575 -3 8 C-3.1875 5.125 -3.1875 5.125 -3 2 C-2.01 1.34 -1.02 0.68 0 0 Z " fill="#BFBBB2" transform="translate(229,144)"/>
<path d="M0 0 C2 3 2 3 2 7 C0.35 6.67 -1.3 6.34 -3 6 C-2.67 4.68 -2.34 3.36 -2 2 C-1.34 2 -0.68 2 0 2 C0 1.34 0 0.68 0 0 Z " fill="#CDC9BD" transform="translate(206,315)"/>
<path d="M0 0 C2.39763185 2.39763185 2.34280586 3.33273498 2.625 6.625 C2.69976562 7.44226563 2.77453125 8.25953125 2.8515625 9.1015625 C2.92503906 10.04128906 2.92503906 10.04128906 3 11 C2.34 11 1.68 11 1 11 C0.67 8.69 0.34 6.38 0 4 C-1.32 4.33 -2.64 4.66 -4 5 C-2.68 3.35 -1.36 1.7 0 0 Z " fill="#A29F96" transform="translate(169,250)"/>
<path d="M0 0 C0 0.66 0 1.32 0 2 C-3.96 3.98 -3.96 3.98 -8 6 C-8.33 5.01 -8.66 4.02 -9 3 C-3.375 0 -3.375 0 0 0 Z " fill="#D0CDC2" transform="translate(205,226)"/>
<path d="M0 0 C0 2.64 0 5.28 0 8 C-0.33 7.01 -0.66 6.02 -1 5 C-3.00016466 3.79117904 -3.00016466 3.79117904 -5 3 C-2.25 0 -2.25 0 0 0 Z " fill="#D5D1C4" transform="translate(254,170)"/>
<path d="M0 0 C0.33 1.65 0.66 3.3 1 5 C-1.96175123 4.38722388 -3.38058783 3.74627478 -6 2 C-2.25 0 -2.25 0 0 0 Z " fill="#C5C1B8" transform="translate(198,241)"/>
<path d="M0 0 C0.103125 0.639375 0.20625 1.27875 0.3125 1.9375 C0.539375 2.618125 0.76625 3.29875 1 4 C1.99 4.33 2.98 4.66 4 5 C3.34 6.32 2.68 7.64 2 9 C0 7 0 7 -0.125 3.375 C-0.08375 2.26125 -0.0425 1.1475 0 0 Z " fill="#BDB9AD" transform="translate(113,289)"/>
<path d="M0 0 C2.64 0 5.28 0 8 0 C6.75 1.5625 6.75 1.5625 5 3 C2.875 2.8125 2.875 2.8125 1 2 C0.67 1.34 0.34 0.68 0 0 Z " fill="#F8F4E3" transform="translate(194,226)"/>
<path d="M0 0 C2.625 0.375 2.625 0.375 5 1 C3.35 2.32 1.7 3.64 0 5 C-0.66 4.01 -1.32 3.02 -2 2 C-1.34 1.34 -0.68 0.68 0 0 Z " fill="#D8D7CA" transform="translate(193,202)"/>
<path d="M0 0 C1.32 0 2.64 0 4 0 C4 0.99 4 1.98 4 3 C2.35 3.66 0.7 4.32 -1 5 C-1 2 -1 2 0 0 Z " fill="#DED8CE" transform="translate(152,237)"/>
<path d="M0 0 C-1.15173355 2.46800047 -2.04783565 4.04783565 -4 6 C-4.99 5.67 -5.98 5.34 -7 5 C-2.25 0 -2.25 0 0 0 Z " fill="#D8D6C9" transform="translate(48,128)"/>
</svg>
