<?xml version="1.0" encoding="UTF-8"?>
<svg version="1.1" xmlns="http://www.w3.org/2000/svg" width="738" height="307">
<path d="M0 0 C7.07495714 2.12807927 11.7639506 7.26394159 15.55688477 13.42358398 C20.00922606 22.02312169 21.11114126 30.49053663 18.68579102 39.84545898 C15.50055103 49.35693949 9.96198934 55.21207525 1.81079102 60.84545898 C2.33479492 62.42133789 2.33479492 62.42133789 2.86938477 64.02905273 C5.24584191 71.31188382 7.3980759 78.14144353 7.81079102 85.84545898 C8.78016602 85.51545898 9.74954102 85.18545898 10.74829102 84.84545898 C19.58555284 82.3788337 28.18587643 83.85155284 36.23266602 88.13452148 C44.31697734 93.20756248 50.02052194 99.61168194 52.81079102 108.84545898 C54.64009829 117.89175935 54.07717001 126.98373959 49.51782227 135.16577148 C48.06494898 137.21459547 46.54063336 139.02586067 44.81079102 140.84545898 C44.28485352 141.39975586 43.75891602 141.95405273 43.21704102 142.52514648 C35.85774574 149.50259153 27.66313695 151.43970178 17.71557617 151.3203125 C8.49765599 150.9253838 1.93453613 147.42056385 -5.18920898 141.84545898 C-5.5669043 142.3675293 -5.94459961 142.88959961 -6.33374023 143.42749023 C-11.388105 150.18637145 -17.14082402 155.99394731 -23.18920898 161.84545898 C-22.66520508 162.96694336 -22.66520508 162.96694336 -22.13061523 164.11108398 C-21.67557617 165.09592773 -21.22053711 166.08077148 -20.75170898 167.09545898 C-20.07301758 168.55725586 -20.07301758 168.55725586 -19.38061523 170.04858398 C-16.20495659 177.50357279 -15.88616879 186.69286575 -17.87280273 194.54858398 C-18.82083478 196.79868494 -19.88143305 198.78459846 -21.18920898 200.84545898 C-21.63651367 201.5531543 -22.08381836 202.26084961 -22.54467773 202.98999023 C-27.71588413 210.46259143 -34.21096205 215.07701641 -43.18920898 216.84545898 C-52.72970936 217.83825217 -61.4483418 216.81009205 -69.47436523 211.26733398 C-71.5286668 209.56245567 -73.3677174 207.79557526 -75.18920898 205.84545898 C-75.68291992 205.32209961 -76.17663086 204.79874023 -76.68530273 204.25952148 C-82.01697676 197.7729151 -83.42043294 189.0356548 -83.18920898 180.84545898 C-83.79764648 180.89186523 -84.40608398 180.93827148 -85.03295898 180.98608398 C-92.67414181 181.30072092 -99.28713509 179.81146597 -106.58764648 177.81811523 C-109.45128347 177.04474689 -112.27411885 176.38007976 -115.18920898 175.84545898 C-115.52952148 176.49772461 -115.86983398 177.14999023 -116.22045898 177.82202148 C-121.34592147 187.06421181 -127.20310473 191.83844956 -137.26342773 195.15014648 C-147.23376519 197.51959918 -155.41939781 195.67992234 -164.18920898 190.71264648 C-171.14363611 186.18627365 -174.09983056 180.76807942 -176.18920898 172.84545898 C-173.02681317 169.65369806 -169.8585214 166.46785088 -166.68920898 163.28295898 C-165.80233398 162.38770508 -164.91545898 161.49245117 -164.00170898 160.57006836 C-159.47866354 156.03039407 -154.90691545 151.64217715 -150.04321289 147.47021484 C-146.93847246 144.74937635 -144.0348275 141.83583821 -141.12670898 138.90795898 C-140.5537207 138.33883789 -139.98073242 137.7697168 -139.39038086 137.18334961 C-136.47402233 134.26043009 -133.67091576 131.28462068 -130.97827148 128.15405273 C-126.56375715 123.05763657 -121.89236118 118.21841826 -117.1640625 113.4152832 C-116.13110568 112.36050912 -115.10447494 111.29950582 -114.08398438 110.23266602 C-112.59037883 108.67223939 -111.07806723 107.13235278 -109.56030273 105.59545898 C-108.67270264 104.68280273 -107.78510254 103.77014648 -106.87060547 102.82983398 C-103.6570653 100.45164456 -102.09146771 100.52968876 -98.18920898 100.84545898 C-94.96674549 99.465811 -92.20067714 97.6705912 -89.18920898 95.84545898 C-89.51920898 92.54545898 -89.84920898 89.24545898 -90.18920898 85.84545898 C-87.21920898 86.83545898 -84.24920898 87.82545898 -81.18920898 88.84545898 C-79.98365889 87.12882781 -78.80033174 85.3965743 -77.62670898 83.65795898 C-76.96541992 82.6950293 -76.30413086 81.73209961 -75.62280273 80.73999023 C-73.96531957 77.39340978 -74.2932008 76.34106987 -75.18920898 72.84545898 C-72.73296916 69.20071602 -69.91010904 66.56061216 -66.57983398 63.72436523 C-61.80491587 59.57207239 -57.33846809 55.14189751 -52.87670898 50.65795898 C-52.07942383 49.86454102 -51.28213867 49.07112305 -50.46069336 48.25366211 C-49.6943457 47.48602539 -48.92799805 46.71838867 -48.13842773 45.92749023 C-47.10721802 44.89458862 -47.10721802 44.89458862 -46.05517578 43.84082031 C-44.13883769 41.87696789 -44.13883769 41.87696789 -42.56738281 39.59033203 C-42.11258545 39.01452393 -41.65778809 38.43871582 -41.18920898 37.84545898 C-40.52920898 37.84545898 -39.86920898 37.84545898 -39.18920898 37.84545898 C-39.18920898 37.18545898 -39.18920898 36.52545898 -39.18920898 35.84545898 C-37.90405273 34.61889648 -37.90405273 34.61889648 -36.12670898 33.22045898 C-33.54037294 31.08874579 -31.29137454 28.91969011 -29.13452148 26.35717773 C-24.7929702 21.33163987 -20.23710064 16.5300309 -15.59130859 11.78759766 C-14.60595963 10.77531133 -13.62785145 9.75593145 -12.65673828 8.72998047 C-11.23486659 7.22926104 -9.79151075 5.75259012 -8.34155273 4.27905273 C-7.07299438 2.96505493 -7.07299438 2.96505493 -5.77880859 1.62451172 C-3.18920898 -0.15454102 -3.18920898 -0.15454102 0 0 Z M-31.93920898 37.34545898 C-32.35170898 38.17045898 -32.76420898 38.99545898 -33.18920898 39.84545898 C-32.05483398 39.98983398 -30.92045898 40.13420898 -29.75170898 40.28295898 C-26.18920898 40.84545898 -26.18920898 40.84545898 -25.18920898 41.84545898 C-25.67725006 42.26203766 -26.16529114 42.67861633 -26.66812134 43.1078186 C-31.62051108 47.38130129 -36.30534076 51.84064585 -40.90014648 56.49389648 C-41.59435699 57.19189362 -42.2885675 57.88989075 -43.0038147 58.60903931 C-45.19308767 60.81040447 -47.37904635 63.01501418 -49.56420898 65.22045898 C-52.46500177 68.14778919 -55.36905813 71.07182449 -58.27514648 73.99389648 C-58.93968842 74.66673676 -59.60423035 75.33957703 -60.28890991 76.0328064 C-61.21094711 76.95979843 -61.21094711 76.95979843 -62.15161133 77.90551758 C-62.69151703 78.4506601 -63.23142273 78.99580261 -63.78768921 79.5574646 C-65.18920898 80.84545898 -65.18920898 80.84545898 -67.18920898 81.84545898 C-67.18920898 79.20545898 -67.18920898 76.56545898 -67.18920898 73.84545898 C-69.87976179 75.06553842 -69.87976179 75.06553842 -72.18920898 76.84545898 C-72.28813838 79.01026695 -72.31891999 81.17839683 -72.31420898 83.34545898 C-72.31678711 84.53139648 -72.31936523 85.71733398 -72.32202148 86.93920898 C-72.52131118 89.73805321 -72.52131118 89.73805321 -71.18920898 90.84545898 C-69.51036661 91.23862378 -67.82070853 91.5863135 -66.12670898 91.90795898 C-65.20760742 92.08456055 -64.28850586 92.26116211 -63.34155273 92.44311523 C-62.6312793 92.57588867 -61.92100586 92.70866211 -61.18920898 92.84545898 C-65.14920898 94.82545898 -65.14920898 94.82545898 -69.18920898 96.84545898 C-68.64581107 101.41000149 -67.39457078 104.81827658 -65.18920898 108.84545898 C-65.88788086 108.48452148 -66.58655273 108.12358398 -67.30639648 107.75170898 C-68.21647461 107.28764648 -69.12655273 106.82358398 -70.06420898 106.34545898 C-70.96913086 105.88139648 -71.87405273 105.41733398 -72.80639648 104.93920898 C-75.05517758 103.7064031 -75.05517758 103.7064031 -77.18920898 103.84545898 C-77.69581055 104.80258789 -77.69581055 104.80258789 -78.21264648 105.77905273 C-78.65866211 106.6053418 -79.10467773 107.43163086 -79.56420898 108.28295898 C-80.00506836 109.10666992 -80.44592773 109.93038086 -80.90014648 110.77905273 C-82.18920898 112.84545898 -82.18920898 112.84545898 -84.18920898 113.84545898 C-84.17760742 113.14678711 -84.16600586 112.44811523 -84.15405273 111.72827148 C-84.1450293 110.81819336 -84.13600586 109.90811523 -84.12670898 108.97045898 C-84.11510742 108.06553711 -84.10350586 107.16061523 -84.09155273 106.22827148 C-84.02671641 103.82860048 -84.02671641 103.82860048 -85.18920898 101.84545898 C-93.76749784 101.16042975 -93.76749784 101.16042975 -101.18920898 104.84545898 C-101.51920898 105.50545898 -101.84920898 106.16545898 -102.18920898 106.84545898 C-99.87920898 106.84545898 -97.56920898 106.84545898 -95.18920898 106.84545898 C-97.83768393 111.0452218 -100.57974353 114.46629167 -104.14624023 117.96264648 C-104.84531746 118.65392136 -104.84531746 118.65392136 -105.55851746 119.35916138 C-107.0348299 120.81784745 -108.51768738 122.26962017 -110.00170898 123.72045898 C-115.78222078 129.3912927 -121.51811574 135.04418638 -126.78320312 141.20581055 C-128.44641226 143.14540293 -130.19101996 144.98075093 -132.00170898 146.78295898 C-132.5650293 147.34885742 -133.12834961 147.91475586 -133.70874023 148.49780273 C-135.18920898 149.84545898 -135.18920898 149.84545898 -137.18920898 150.84545898 C-137.18920898 148.20545898 -137.18920898 145.56545898 -137.18920898 142.84545898 C-141.24945219 144.88348034 -141.24945219 144.88348034 -143.18920898 148.84545898 C-143.10347671 150.91133013 -142.95087364 152.97492423 -142.75170898 155.03295898 C-142.64987305 156.11963867 -142.54803711 157.20631836 -142.44311523 158.32592773 C-142.35932617 159.15737305 -142.27553711 159.98881836 -142.18920898 160.84545898 C-137.35746894 161.81180699 -133.0818266 162.38908316 -128.18920898 161.84545898 C-125.99165949 160.02917109 -124.79529888 158.25459382 -123.18920898 155.84545898 C-125.82920898 155.51545898 -128.46920898 155.18545898 -131.18920898 154.84545898 C-130.22821289 153.90186523 -130.22821289 153.90186523 -129.24780273 152.93920898 C-128.3828418 152.08327148 -127.51788086 151.22733398 -126.62670898 150.34545898 C-125.77979492 149.51014648 -124.93288086 148.67483398 -124.06030273 147.81420898 C-121.90262973 145.63302944 -119.88516537 143.36258867 -117.88452148 141.03686523 C-114.00942374 136.56580164 -109.84585327 132.42709626 -105.62670898 128.28295898 C-101.53329713 124.26193284 -97.4822127 120.27535512 -93.78686523 115.88061523 C-91.18920898 112.84545898 -91.18920898 112.84545898 -89.18920898 111.84545898 C-89.18920898 114.48545898 -89.18920898 117.12545898 -89.18920898 119.84545898 C-86.87920898 118.52545898 -84.56920898 117.20545898 -82.18920898 115.84545898 C-81.85920898 117.49545898 -81.52920898 119.14545898 -81.18920898 120.84545898 C-78.94141149 118.79312214 -78.18698478 117.83878638 -77.18920898 114.84545898 C-74.12468531 121.353591 -71.71055611 127.94071482 -69.51733398 134.78686523 C-69.1900531 135.79514877 -68.86277222 136.80343231 -68.52557373 137.8422699 C-67.49221246 141.0293741 -66.46560641 144.21860615 -65.43920898 147.40795898 C-64.73522915 149.58323399 -64.03080635 151.75836568 -63.32592773 153.93334961 C-61.60856462 159.23574046 -59.89672639 164.53988988 -58.18920898 169.84545898 C-60.82920898 169.18545898 -63.46920898 168.52545898 -66.18920898 167.84545898 C-65.84802791 170.74549811 -65.62390844 172.36547849 -64.18920898 174.84545898 C-59.73118057 178.01631018 -55.67436211 179.84545898 -50.18920898 179.84545898 C-47.00581505 176.4236611 -44.12935712 172.18716336 -44.25170898 167.40014648 C-44.8244272 164.97979039 -44.8244272 164.97979039 -46.18920898 161.84545898 C-47.11733398 162.77358398 -47.11733398 162.77358398 -48.06420898 163.72045898 C-49.43920898 165.09545898 -50.81420898 166.47045898 -52.18920898 167.84545898 C-54.61646836 160.49682447 -57.03684308 153.14594892 -59.45239258 145.79345703 C-60.27534292 143.29130463 -61.09988134 140.78967396 -61.92602539 138.28857422 C-63.11166324 134.69821229 -64.29161997 131.10602679 -65.47045898 127.51342773 C-66.02824036 125.83049873 -66.02824036 125.83049873 -66.59729004 124.11357117 C-66.93764282 123.07271866 -67.27799561 122.03186615 -67.62866211 120.95947266 C-67.93066528 120.04236008 -68.23266846 119.1252475 -68.54382324 118.18034363 C-69.18920898 115.84545898 -69.18920898 115.84545898 -69.18920898 112.84545898 C-68.59108398 113.17545898 -67.99295898 113.50545898 -67.37670898 113.84545898 C-65.13534428 115.05333886 -65.13534428 115.05333886 -62.18920898 114.84545898 C-62.51920898 113.52545898 -62.84920898 112.20545898 -63.18920898 110.84545898 C-61.20920898 111.17545898 -59.22920898 111.50545898 -57.18920898 111.84545898 C-58.50920898 109.20545898 -59.82920898 106.56545898 -61.18920898 103.84545898 C-60.23369141 104.12220459 -59.27817383 104.3989502 -58.29370117 104.68408203 C-36.28612032 111.10513383 -36.28612032 111.10513383 -14.12670898 116.97045898 C-13.32652344 117.16986084 -12.52633789 117.3692627 -11.7019043 117.57470703 C-7.98835137 118.51727359 -7.98835137 118.51727359 -4.18920898 118.84545898 C-4.18920898 119.50545898 -4.18920898 120.16545898 -4.18920898 120.84545898 C-4.80795898 121.13420898 -5.42670898 121.42295898 -6.06420898 121.72045898 C-8.32246663 122.7826594 -8.32246663 122.7826594 -10.18920898 124.84545898 C-6.81829332 126.5359675 -6.81829332 126.5359675 -3.18920898 126.84545898 C0.46843886 124.9078081 3.62362655 122.47470935 6.81079102 119.84545898 C5.96303214 115.09136019 4.84955333 110.6933592 1.81079102 106.84545898 C-1.81574563 105.70589172 -1.81574563 105.70589172 -5.18920898 105.84545898 C-3.88765892 109.92510179 -3.88765892 109.92510179 -2.18920898 113.84545898 C-2.75389893 113.67530273 -3.31858887 113.50514648 -3.90039062 113.32983398 C-21.55106664 108.03691868 -39.32783586 103.36210772 -57.18920898 98.84545898 C-57.18920898 98.18545898 -57.18920898 97.52545898 -57.18920898 96.84545898 C-54.68920898 95.22045898 -54.68920898 95.22045898 -52.18920898 93.84545898 C-54.86563387 91.66055892 -54.86563387 91.66055892 -57.18920898 91.84545898 C-56.19920898 90.19545898 -55.20920898 88.54545898 -54.18920898 86.84545898 C-56.82920898 86.84545898 -59.46920898 86.84545898 -62.18920898 86.84545898 C-57.45339877 80.91187576 -52.04129952 75.83200528 -46.46362305 70.71557617 C-40.10972334 64.85355111 -34.03634213 58.72688391 -28.00439453 52.53540039 C-27.27518799 51.79467285 -26.54598145 51.05394531 -25.79467773 50.29077148 C-25.146521 49.62577637 -24.49836426 48.96078125 -23.83056641 48.27563477 C-22.18920898 46.84545898 -22.18920898 46.84545898 -20.18920898 46.84545898 C-19.69420898 50.31045898 -19.69420898 50.31045898 -19.18920898 53.84545898 C-16.48778004 52.52364882 -16.48778004 52.52364882 -14.18920898 49.84545898 C-13.46704215 45.22051819 -13.65932285 40.29603683 -15.18920898 35.84545898 C-20.36559107 33.25726794 -27.7316629 33.52041709 -31.93920898 37.34545898 Z " fill="#EFEBDE" transform="translate(226.189208984375,83.154541015625)"/>
<path d="M0 0 C1.04800781 0.3403125 2.09601563 0.680625 3.17578125 1.03125 C10.67710912 3.7963721 18.11166376 7.66108834 22.04553223 14.93260193 C25.38665435 22.40371135 25.58213937 29.23585652 25.53125 37.3359375 C25.53395317 38.70537592 25.53784239 40.07481244 25.54284668 41.44424438 C25.54870719 44.30025692 25.54029473 47.15576536 25.52148438 50.01171875 C25.49873938 53.63822464 25.5118101 57.26354301 25.53577423 60.89000511 C25.5503642 63.71455513 25.54556598 66.53883277 25.53526306 69.36339188 C25.53136629 71.33946774 25.54333239 73.315555 25.55578613 75.29159546 C25.449502 85.64402617 23.70843636 95.99433244 16.97265625 104.24609375 C9.89660921 110.53747023 1.26247737 113.11089945 -8.00854492 113.1418457 C-9.79146187 113.15239738 -9.79146187 113.15239738 -11.61039734 113.16316223 C-12.8875209 113.16732651 -14.16464447 113.17149078 -15.48046875 113.17578125 C-16.81700927 113.18621996 -18.15354241 113.19764493 -19.49006653 113.21000671 C-25.14609427 113.26218715 -30.80198887 113.31037342 -36.45825195 113.32592773 C-39.92672311 113.33608715 -43.39458777 113.36560837 -46.86281776 113.40724754 C-48.80675574 113.42532817 -50.75085014 113.42292634 -52.69487 113.41999817 C-61.33028079 113.53823904 -68.43262029 114.77799649 -75.5859375 119.82421875 C-82.60235349 127.13170877 -85.9553615 134.75012194 -86.31640625 144.859375 C-86.35830078 145.97441406 -86.40019531 147.08945313 -86.44335938 148.23828125 C-86.48267578 149.39714844 -86.52199219 150.55601562 -86.5625 151.75 C-86.60568359 152.92433594 -86.64886719 154.09867188 -86.69335938 155.30859375 C-86.79934794 158.20561451 -86.90141638 161.10271935 -87 164 C-90.62456014 164.14728458 -94.24833521 164.23472226 -97.875 164.3125 C-99.39480469 164.3753418 -99.39480469 164.3753418 -100.9453125 164.43945312 C-109.23165586 164.57224709 -115.71949364 162.73181494 -122.05126953 157.21166992 C-132.8854584 146.29495562 -136.22641232 129.83843458 -136.375 115 C-136.20708939 99.81608331 -132.4686987 84.5253524 -122 73 C-119.5625 71.234375 -119.5625 71.234375 -117 69.75 C-116.154375 69.24984375 -115.30875 68.7496875 -114.4375 68.234375 C-109.94070288 65.95715082 -106.04102203 65.86829224 -101.01586914 65.84228516 C-100.32105942 65.83720444 -99.62624969 65.83212372 -98.91038513 65.82688904 C-97.405536 65.81621142 -95.90067124 65.80758107 -94.39579964 65.80076981 C-92.0122723 65.78894901 -89.62892356 65.76948917 -87.24546814 65.74765015 C-80.47010241 65.68613337 -73.69475718 65.63197508 -66.91918945 65.59863281 C-62.77119907 65.5776735 -58.62353843 65.5423645 -54.47573662 65.49787521 C-52.89736247 65.48372959 -51.31893003 65.47499601 -49.74049568 65.47182083 C-47.53115495 65.46690498 -45.32268812 65.44373257 -43.11352539 65.41650391 C-41.22966881 65.40437363 -41.22966881 65.40437363 -39.30775452 65.39199829 C-35.72023995 64.96684595 -33.81204836 64.24646419 -31 62 C-30.06302934 58.56444093 -29.69098869 56.14334186 -30.625 52.6875 C-32.56253466 50.30961655 -34.03799976 49.90159298 -37 49 C-40.21176058 48.6825166 -43.41490828 48.65159841 -46.640625 48.62109375 C-47.56341248 48.60409927 -48.48619995 48.5871048 -49.43695068 48.56959534 C-52.37456494 48.51659939 -55.31216543 48.47620633 -58.25 48.4375 C-61.20204768 48.39360784 -64.15398493 48.34698891 -67.105896 48.29469299 C-68.9409758 48.26266708 -70.77615394 48.23579863 -72.61138916 48.21446228 C-78.88821471 48.11178529 -78.88821471 48.11178529 -80 47 C-80.28296128 42.96565812 -80.23191021 38.91806869 -80.25 34.875 C-80.270625 33.74578125 -80.29125 32.6165625 -80.3125 31.453125 C-80.35794644 21.750311 -78.61319965 16.03425813 -71.9296875 8.8515625 C-55.43502583 -6.9752991 -20.48762051 -6.85685545 0 0 Z M-64.9375 18.125 C-67.18785503 20.8337336 -67.18785503 20.8337336 -67.5625 24 C-66.8491179 27.80470451 -65.88381579 29.41196019 -63 32 C-58.88546541 33.27176524 -56.97148295 33.50686067 -53.125 31.5 C-50.3649906 28.25293011 -50 26.23692038 -50 22 C-51.34562399 19.05244268 -52.08554544 17.45722728 -55 16 C-59.37362014 15.50487319 -61.31955244 15.50776134 -64.9375 18.125 Z " fill="#F0ECDF" transform="translate(151,24)"/>
<path d="M0 0 C1.16082596 0.00007553 2.32165192 0.00015106 3.51765442 0.00022888 C4.76052719 0.00539017 6.00339996 0.01055145 7.28393555 0.01586914 C8.56423141 0.01728409 9.84452728 0.01869904 11.16362 0.02015686 C14.55512469 0.02396142 17.94658606 0.03377396 21.33807373 0.04486084 C24.80374567 0.05511942 28.26942465 0.05966398 31.73510742 0.06469727 C38.52614177 0.07571784 45.31714411 0.09244969 52.1081543 0.11352539 C50.3244719 3.98897788 47.89049517 6.34771613 44.7253418 9.12915039 C36.13963828 16.86907974 28.01118578 25.06015599 19.84936523 33.24194336 C17.22062021 35.87608521 14.58652252 38.50479043 11.9519043 41.13305664 C10.25627081 42.82935042 8.56094726 44.52595409 6.8659668 46.22290039 C6.08980011 46.99704285 5.31363342 47.7711853 4.51394653 48.56878662 C0.38703825 52.71331419 -3.56637772 56.94638411 -7.38439941 61.37701416 C-10.48819414 64.95244795 -13.85966578 68.26574567 -17.2043457 71.61352539 C-17.91913086 72.34055664 -18.63391602 73.06758789 -19.37036133 73.81665039 C-20.05420898 74.50243164 -20.73805664 75.18821289 -21.44262695 75.89477539 C-22.0579126 76.51416992 -22.67319824 77.13356445 -23.30712891 77.77172852 C-24.8918457 79.11352539 -24.8918457 79.11352539 -26.8918457 79.11352539 C-27.89604316 76.10093303 -28.03585288 74.0342272 -28.06884766 70.8828125 C-28.08168289 69.81417465 -28.09451813 68.7455368 -28.10774231 67.64451599 C-28.11512924 66.48831253 -28.12251617 65.33210907 -28.13012695 64.14086914 C-28.1381987 62.94804825 -28.14627045 61.75522736 -28.15458679 60.52626038 C-28.16842957 57.99685113 -28.17915085 55.46742319 -28.18701172 52.93798828 C-28.20416951 49.0905348 -28.24804941 45.24395286 -28.29223633 41.39672852 C-28.30236828 38.93644836 -28.31088281 36.47616091 -28.31762695 34.01586914 C-28.33513504 32.8738353 -28.35264313 31.73180145 -28.37068176 30.55516052 C-28.34805476 22.11941853 -27.0066883 15.00707864 -21.6418457 8.30102539 C-14.53631658 2.64889995 -9.21374333 -0.02007351 0 0 Z " fill="#F0ECDD" transform="translate(99.891845703125,143.886474609375)"/>
<path d="M0 0 C5.61 0 11.22 0 17 0 C20.79802944 8.78294309 24.11334999 17.68207085 27.3203125 26.69580078 C27.65289062 27.62505371 27.98546875 28.55430664 28.328125 29.51171875 C28.77526855 30.77181763 28.77526855 30.77181763 29.23144531 32.05737305 C29.840504 33.97296637 29.840504 33.97296637 31 35 C35.29 23.45 39.58 11.9 44 0 C49.94 0 55.88 0 62 0 C62 18.81 62 37.62 62 57 C57.71 57 53.42 57 49 57 C48.67 46.11 48.34 35.22 48 24 C44.04 34.89 40.08 45.78 36 57 C32.7 57 29.4 57 26 57 C22.04 46.11 18.08 35.22 14 24 C13.67 34.89 13.34 45.78 13 57 C8.71 57 4.42 57 0 57 C0 38.19 0 19.38 0 0 Z " fill="#ECE9DB" transform="translate(411,92)"/>
<path d="M0 0 C2 2 2 2 3 5 C5.10584438 5.80563638 5.10584438 5.80563638 7.5625 6.1875 C8.80193359 6.42533203 8.80193359 6.42533203 10.06640625 6.66796875 C10.70449219 6.77753906 11.34257812 6.88710937 12 7 C11.34604248 7.65250732 10.69208496 8.30501465 10.01831055 8.97729492 C7.00149429 11.99397899 3.99918516 15.0249598 0.99604797 18.05525208 C-2.21511583 21.29308763 -5.43149959 24.52571595 -8.64819336 27.75805664 C-10.34821079 29.46820781 -12.04643991 31.18013846 -13.74291992 32.89379883 C-16.19245721 35.36746017 -18.64827801 37.83472531 -21.10546875 40.30078125 C-21.86691696 41.07255203 -22.62836517 41.84432281 -23.41288757 42.63948059 C-24.4695739 43.69639351 -24.4695739 43.69639351 -25.54760742 44.7746582 C-26.16762131 45.39911331 -26.78763519 46.02356842 -27.42643738 46.66694641 C-29 48 -29 48 -31 48 C-31 45.36 -31 42.72 -31 40 C-33.11860773 41.044354 -33.11860773 41.044354 -35 43 C-35.48466366 46.19802776 -35.48466366 46.19802776 -35.25 49.6875 C-35.21390625 50.86699219 -35.1778125 52.04648438 -35.140625 53.26171875 C-35.09421875 54.16535156 -35.0478125 55.06898438 -35 56 C-31.37 56.66 -27.74 57.32 -24 58 C-26.89359122 61.3222714 -28.68914241 62.32084333 -33 63 C-32.71125 63.69867188 -32.4225 64.39734375 -32.125 65.1171875 C-31.75375 66.02726562 -31.3825 66.93734375 -31 67.875 C-30.62875 68.77992188 -30.2575 69.68484375 -29.875 70.6171875 C-29 73 -29 73 -29 75 C-33.23429756 73.68938409 -37.07407404 72.05643741 -41 70 C-41.268125 70.721875 -41.53625 71.44375 -41.8125 72.1875 C-42.99901362 74.99766383 -44.27485639 77.48416557 -46 80 C-46.66 80 -47.32 80 -48 80 C-48.33 76.04 -48.66 72.08 -49 68 C-57.56070039 68.24419482 -57.56070039 68.24419482 -65 72 C-62.03 72.495 -62.03 72.495 -59 73 C-60.42300273 77.48894056 -62.63212216 79.97129024 -65.98046875 83.23828125 C-66.71708488 83.96497261 -66.71708488 83.96497261 -67.46858215 84.7063446 C-69.03456927 86.24904417 -70.61034459 87.78122723 -72.1875 89.3125 C-74.24735155 91.32551487 -76.3028236 93.34291969 -78.35546875 95.36328125 C-78.8513298 95.85059723 -79.34719086 96.33791321 -79.858078 96.83999634 C-83.26562657 100.21161137 -86.47575177 103.69817701 -89.5847168 107.34448242 C-91.41127415 109.48108505 -93.33516987 111.50285694 -95.3125 113.5 C-95.96863281 114.1703125 -96.62476562 114.840625 -97.30078125 115.53125 C-99 117 -99 117 -101 117 C-101.33 114.69 -101.66 112.38 -102 110 C-105.12197478 111.3089572 -105.12197478 111.3089572 -107 114 C-107.99 113.67 -108.98 113.34 -110 113 C-112.16715557 113.87483915 -112.16715557 113.87483915 -114 115 C-109.8184651 109.93814197 -105.36344007 105.30357822 -100.66015625 100.72265625 C-98.65247803 98.66780791 -96.77527192 96.60789393 -94.90625 94.43359375 C-90.44868594 89.29861036 -85.74341439 84.41385872 -80.97485352 79.56982422 C-79.94189669 78.51505014 -78.91526596 77.45404683 -77.89477539 76.38720703 C-76.40116984 74.82678041 -74.88885824 73.2868938 -73.37109375 71.75 C-72.48349365 70.83734375 -71.59589355 69.9246875 -70.68139648 68.984375 C-67.46785632 66.60618557 -65.90225873 66.68422978 -62 67 C-58.7775365 65.62035202 -56.01146816 63.82513222 -53 62 C-53.33 58.7 -53.66 55.4 -54 52 C-51.03 52.99 -48.06 53.98 -45 55 C-43.79444991 53.28336882 -42.61112276 51.55111532 -41.4375 49.8125 C-40.44556641 48.36810547 -40.44556641 48.36810547 -39.43359375 46.89453125 C-37.77611058 43.54795079 -38.10399181 42.49561089 -39 39 C-36.54376017 35.35525703 -33.72090005 32.71515317 -30.390625 29.87890625 C-25.61570688 25.7266134 -21.14925911 21.29643852 -16.6875 16.8125 C-15.49157227 15.62237305 -15.49157227 15.62237305 -14.27148438 14.40820312 C-13.50513672 13.64056641 -12.73878906 12.87292969 -11.94921875 12.08203125 C-10.91800903 11.04912964 -10.91800903 11.04912964 -9.8659668 9.99536133 C-7.9496287 8.0315089 -7.9496287 8.0315089 -6.37817383 5.74487305 C-5.92337646 5.16906494 -5.4685791 4.59325684 -5 4 C-4.34 4 -3.68 4 -3 4 C-3 3.34 -3 2.68 -3 2 C-2.01 1.34 -1.02 0.68 0 0 Z " fill="#E9E4D5" transform="translate(190,117)"/>
<path d="M0 0 C4.62 0 9.24 0 14 0 C14 19.47 14 38.94 14 59 C9.38 59 4.76 59 0 59 C-0.495 56.525 -0.495 56.525 -1 54 C-1.763125 54.804375 -2.52625 55.60875 -3.3125 56.4375 C-6.47281481 59.45082342 -8.00500731 59.92490621 -12.3125 60.25 C-17.9316531 59.86904047 -20.83310243 58.19341797 -24.75 54.1875 C-30.28760246 46.34256318 -30.13011548 36.6882289 -28.5703125 27.45703125 C-26.91016444 22.1589044 -23.40935643 19.07061207 -19 16 C-15.55643018 14.27821509 -11.7728428 14.62141024 -8 15 C-5.03087118 16.38980498 -3.30342972 17.69657028 -1 20 C-0.67 13.4 -0.34 6.8 0 0 Z M-14 29 C-16.10204634 33.20409267 -15.52841649 38.43253793 -15 43 C-13.20299181 46.46784527 -13.20299181 46.46784527 -10 48 C-6.35592863 48.33660145 -6.35592863 48.33660145 -3 47 C0.04072121 43.95927879 0.20298593 41.06252988 0.3125 36.9375 C0.29618005 33.40695031 -0.12095298 31.01846916 -2 28 C-6.70911592 24.9618607 -9.55632335 25.95958966 -14 29 Z " fill="#E3E0D2" transform="translate(558,90)"/>
<path d="M0 0 C4.62 0 9.24 0 14 0 C14.33 6.6 14.66 13.2 15 20 C16.32 18.68 17.64 17.36 19 16 C23.35250507 14.54916498 27.58113755 14.14657071 31.9375 15.68359375 C36.84343444 18.23171918 39.76753035 21.60542645 41.68359375 26.8828125 C44.06176802 35.24742544 43.46755879 43.0427289 40 51 C37.21332486 55.34817414 34.20499849 58.85743936 29 60 C23.95748875 60.45022422 21.08209181 60.03241106 17 57 C16.34 56.34 15.68 55.68 15 55 C14.34 56.32 13.68 57.64 13 59 C8.71 59 4.42 59 0 59 C0 39.53 0 20.06 0 0 Z M17.1875 27.25 C14.91778893 28.81520698 14.91778893 28.81520698 14 31 C13.82568154 33.12039826 13.73290929 35.24793308 13.6875 37.375 C13.65011719 38.51710938 13.61273437 39.65921875 13.57421875 40.8359375 C13.74248421 44.07464226 13.74248421 44.07464226 15.83203125 46.3828125 C17.96165739 48.22897467 17.96165739 48.22897467 21 48.5 C24.65102254 47.89149624 25.76579531 46.89619126 28 44 C29.609203 39.17239101 29.71399919 34.82466459 27.875 30.125 C24.67272018 26.49574953 21.70440596 25.24248624 17.1875 27.25 Z " fill="#EAE7DA" transform="translate(581,90)"/>
<path d="M0 0 C4.23167484 -0.1249586 8.46233173 -0.21496477 12.6953125 -0.2746582 C14.13072448 -0.29957855 15.56601257 -0.33352875 17.00097656 -0.37719727 C25.85315172 -0.63955253 33.55664513 -0.49776701 41 5 C46.15432731 11.16004971 46.64908655 17.21096144 46 25 C44.01732065 31.71908001 40.80010306 34.54832061 35.0625 38.25 C28.32776184 40.6989957 21.0468727 40.07917834 14 40 C14 45.61 14 51.22 14 57 C3.94140625 57.09765625 3.94140625 57.09765625 1 57 C0 56 0 56 -0.12025452 53.75376892 C-0.11803391 52.76115555 -0.11581329 51.76854218 -0.11352539 50.74584961 C-0.11344986 49.62476303 -0.11337433 48.50367645 -0.11329651 47.34861755 C-0.10813522 46.1288472 -0.10297394 44.90907684 -0.09765625 43.65234375 C-0.0962413 42.41078018 -0.09482635 41.16921661 -0.09336853 39.89002991 C-0.08870591 36.58394509 -0.07971497 33.27792854 -0.06866455 29.97186279 C-0.05844827 26.6003885 -0.05387045 23.22890717 -0.04882812 19.85742188 C-0.03777395 13.23826225 -0.02101736 6.61913507 0 0 Z M14 11 C14 16.61 14 22.22 14 28 C22.60850809 28.7890697 22.60850809 28.7890697 30.3125 25.875 C32.28569575 22.51325909 32.57104749 20.83417603 32 17 C31.15330598 14.45991794 30.555841 13.36284065 28.3125 11.8984375 C25.34669266 10.74618127 22.92216907 10.8060398 19.75 10.875 C17.8525 10.91625 15.955 10.9575 14 11 Z " fill="#ECEADE" transform="translate(311,92)"/>
<path d="M0 0 C4.62 0 9.24 0 14 0 C16.96368451 8.57908674 19.46883507 17.28598951 22 26 C22.20681396 25.2479126 22.41362793 24.4958252 22.62670898 23.72094727 C23.56018954 20.33383628 24.49877368 16.9481607 25.4375 13.5625 C25.76298828 12.37849609 26.08847656 11.19449219 26.42382812 9.97460938 C26.73642578 8.84990234 27.04902344 7.72519531 27.37109375 6.56640625 C27.65911865 5.52427979 27.94714355 4.48215332 28.24389648 3.40844727 C29 1 29 1 30 0 C32.35313555 -0.07271741 34.70833668 -0.08370868 37.0625 -0.0625 C38.35285156 -0.05347656 39.64320313 -0.04445313 40.97265625 -0.03515625 C41.97167969 -0.02355469 42.97070312 -0.01195313 44 0 C41.70989986 9.29434738 38.60650014 18.28569643 35.43920898 27.30834961 C34.55927824 29.82170233 33.69258139 32.33938102 32.82617188 34.85742188 C32.26121892 36.47423888 31.69549083 38.09078529 31.12890625 39.70703125 C30.87460342 40.45088577 30.6203006 41.1947403 30.35829163 41.96113586 C27.9123419 48.84901494 24.87958263 54.27877015 18.4375 58.09765625 C13.76440526 59.82759998 8.90019666 59.36751475 4 59 C4 55.37 4 51.74 4 48 C6.05078125 47.77213542 8.1015625 47.54427083 10.15234375 47.31640625 C12.01140229 47.18113386 12.01140229 47.18113386 13 46 C12.91325991 39.92318648 11.38841546 34.43210926 9.27734375 28.7890625 C8.87993736 27.68683853 8.87993736 27.68683853 8.47450256 26.56234741 C7.63812876 24.24639422 6.78877918 21.93551135 5.9375 19.625 C5.08451316 17.29245998 4.23444381 14.9589519 3.38978577 12.62338257 C2.86643424 11.17796403 2.33801531 9.73436773 1.80393982 8.2928772 C0.74532885 5.38338937 0 3.1230727 0 0 Z " fill="#EBE7D9" transform="translate(361,106)"/>
<path d="M0 0 C4.62 0 9.24 0 14 0 C14.04898438 2.07023437 14.09796875 4.14046875 14.1484375 6.2734375 C14.20405689 8.27573559 14.25974397 10.27803246 14.31738281 12.28027344 C14.35569327 13.67308572 14.39054259 15.06599765 14.421875 16.45898438 C14.46747907 18.45986308 14.52651623 20.46042146 14.5859375 22.4609375 C14.6173584 23.66540527 14.6487793 24.86987305 14.68115234 26.11083984 C14.70915226 29.1260018 14.70915226 29.1260018 17 31 C21.04834709 31.46408369 21.04834709 31.46408369 24.65942383 29.8815918 C26.61306211 27.13952474 26.43611666 24.92364364 26.51171875 21.58203125 C26.54716797 20.32841797 26.58261719 19.07480469 26.61914062 17.78320312 C26.64169922 16.47287109 26.66425781 15.16253906 26.6875 13.8125 C26.72067666 12.47717987 26.75516666 11.14189168 26.79101562 9.80664062 C26.87361509 6.53806175 26.93848004 3.26904356 27 0 C31.62 0 36.24 0 41 0 C41.02464574 5.96313166 41.042834 11.92623395 41.05493164 17.8894043 C41.05997278 19.91968298 41.06680557 21.94995802 41.07543945 23.98022461 C41.08751467 26.89177347 41.09323034 29.8032745 41.09765625 32.71484375 C41.10281754 33.6283812 41.10797882 34.54191864 41.11329651 35.48313904 C41.11349168 37.65575427 41.06211805 39.82827296 41 42 C40 43 40 43 37.05859375 43.09765625 C35.86363281 43.08605469 34.66867187 43.07445312 33.4375 43.0625 C31.64119141 43.04896484 31.64119141 43.04896484 29.80859375 43.03515625 C28.88175781 43.02355469 27.95492187 43.01195312 27 43 C26.67 41.68 26.34 40.36 26 39 C25.236875 39.639375 24.47375 40.27875 23.6875 40.9375 C19.46977823 44.17435625 16.2174344 44.35372437 11 44 C6.31829732 42.25583626 3.78750809 40.12964161 1 36 C-0.18975795 32.43072615 -0.12478155 29.20053028 -0.09765625 25.48828125 C-0.0962413 24.76005661 -0.09482635 24.03183197 -0.09336853 23.28153992 C-0.08777659 20.95848461 -0.07522562 18.63552612 -0.0625 16.3125 C-0.05748396 14.73632952 -0.05292123 13.16015752 -0.04882812 11.58398438 C-0.0378098 7.72261902 -0.02055074 3.86132592 0 0 Z " fill="#E7E4D9" transform="translate(631,106)"/>
<path d="M0 0 C5.66433391 3.00761093 9.26725223 7.67077139 11.578125 13.5 C13.59451897 20.34421724 12.9012977 27.27605341 9.953125 33.75 C6.62971959 39.5452621 2.20668071 41.89572787 -4.03515625 43.7734375 C-11.58395976 45.57263419 -17.63990457 43.55655004 -24.046875 39.625 C-29.34231629 34.18246312 -30.57746516 29.41618592 -30.796875 21.8125 C-30.58923249 14.84955463 -29.72852592 9.87260844 -24.8359375 4.796875 C-17.77853277 -1.43656877 -9.09059431 -2.72099422 0 0 Z M-14.671875 12.0625 C-17.13152828 16.98180655 -16.93641401 21.90616443 -16.296875 27.3125 C-15.07569193 30.51071921 -15.07569193 30.51071921 -12.296875 32.3125 C-8.83887141 32.72923207 -8.83887141 32.72923207 -5.296875 32.3125 C-2.15868443 29.27891578 -1.34965386 26.26251953 -1.109375 21.9375 C-1.32965478 17.67875765 -2.14120758 14.98821776 -4.546875 11.5 C-8.17923489 9.03518436 -11.25816978 9.54713826 -14.671875 12.0625 Z " fill="#EAE7D9" transform="translate(511.296875,105.6875)"/>
<path d="M0 0 C2.60554908 2.087 4.10792046 4.30959091 5.58984375 7.2734375 C5.58984375 8.5934375 5.58984375 9.9134375 5.58984375 11.2734375 C3.63218094 11.35425844 1.67357647 11.41254528 -0.28515625 11.4609375 C-1.92097656 11.51314453 -1.92097656 11.51314453 -3.58984375 11.56640625 C-4.52054688 11.46972656 -5.45125 11.37304688 -6.41015625 11.2734375 C-7.07015625 10.2834375 -7.73015625 9.2934375 -8.41015625 8.2734375 C-10.38762747 7.91045814 -10.38762747 7.91045814 -12.53515625 8.0859375 C-13.81390625 8.1478125 -15.09265625 8.2096875 -16.41015625 8.2734375 C-16.74015625 9.9234375 -17.07015625 11.5734375 -17.41015625 13.2734375 C-16.32476563 13.44359375 -15.239375 13.61375 -14.12109375 13.7890625 C-12.67565336 14.03309789 -11.23034769 14.27793212 -9.78515625 14.5234375 C-8.71587891 14.68779297 -8.71587891 14.68779297 -7.625 14.85546875 C-2.17195498 15.80599953 2.40964906 17.49864426 5.96484375 22.0234375 C7.38942625 27.15193448 7.27034581 30.88626023 4.96484375 35.5859375 C0.68570897 40.42811633 -4.13081874 41.84720866 -10.37109375 42.46875 C-16.68593574 42.8011101 -21.87961146 41.32717356 -27.41015625 38.2734375 C-31.4616643 34.51838126 -31.44604986 33.05807585 -32.41015625 27.2734375 C-28.12015625 27.2734375 -23.83015625 27.2734375 -19.41015625 27.2734375 C-19.08015625 28.5934375 -18.75015625 29.9134375 -18.41015625 31.2734375 C-15.11015625 31.2734375 -11.81015625 31.2734375 -8.41015625 31.2734375 C-8.08015625 29.9534375 -7.75015625 28.6334375 -7.41015625 27.2734375 C-7.96477539 27.11786377 -8.51939453 26.96229004 -9.09082031 26.80200195 C-11.61953015 26.08151531 -14.13949875 25.33408621 -16.66015625 24.5859375 C-17.53285156 24.34166016 -18.40554688 24.09738281 -19.3046875 23.84570312 C-24.42348316 22.30224947 -27.59605071 21.1149094 -30.41015625 16.2734375 C-31.69190334 12.02765028 -31.66058464 9.12196182 -29.97265625 5.0859375 C-27.8930232 1.46765702 -25.73096365 -0.49037398 -21.8828125 -2.1015625 C-14.56014468 -3.9524738 -6.60244998 -3.93634439 0 0 Z " fill="#E8E5DA" transform="translate(710.41015625,107.7265625)"/>
<path d="M0 0 C4.45995034 2.56860103 7.00262852 5.08057532 8.609375 10.08984375 C9.16050287 13.41683584 9.58394908 16.71455238 9.609375 20.08984375 C8.609375 21.08984375 8.609375 21.08984375 6.29272461 21.20336914 C5.29249268 21.19813232 4.29226074 21.19289551 3.26171875 21.1875 C2.18212891 21.18427734 1.10253906 21.18105469 -0.00976562 21.17773438 C-1.14607422 21.16935547 -2.28238281 21.16097656 -3.453125 21.15234375 C-4.59330078 21.14783203 -5.73347656 21.14332031 -6.90820312 21.13867188 C-9.73572851 21.12684122 -12.5631514 21.11035785 -15.390625 21.08984375 C-14.31661392 24.00501667 -13.61252324 25.86794551 -11.390625 28.08984375 C-6.61579425 28.65266573 -6.61579425 28.65266573 -2.515625 26.58984375 C0.88261667 24.19108493 4.57574797 24.8571345 8.609375 25.08984375 C7.36842893 30.05362804 5.976036 32.37281024 1.609375 35.08984375 C-3.9014473 37.31536814 -8.68343171 37.51664207 -14.390625 36.08984375 C-19.70772281 33.38113354 -22.91448007 29.78020607 -25.140625 24.21484375 C-25.92702934 17.53040688 -25.61746013 12.06973266 -22.390625 6.08984375 C-16.44295852 -0.92535262 -8.88237266 -3.38168763 0 0 Z M-13.890625 8.90234375 C-15.67338918 11.06014369 -15.67338918 11.06014369 -15.390625 14.08984375 C-10.440625 14.08984375 -5.490625 14.08984375 -0.390625 14.08984375 C-0.88214982 9.2285188 -0.88214982 9.2285188 -3.390625 7.08984375 C-9.04483255 6.44475403 -9.04483255 6.44475403 -13.890625 8.90234375 Z " fill="#DFDDD2" transform="translate(470.390625,189.91015625)"/>
<path d="M0 0 C3.48832821 3.1480035 6.06419243 5.8175773 7.5625 10.3125 C7.5625 13.6125 7.5625 16.9125 7.5625 20.3125 C-0.6875 20.3125 -8.9375 20.3125 -17.4375 20.3125 C-15.27083333 26.14583333 -15.27083333 26.14583333 -12.4375 27.3125 C-7.6420846 27.81860907 -7.6420846 27.81860907 -3.5 25.8125 C-0.26812037 23.46204209 2.63684148 24.11621707 6.5625 24.3125 C6.3550936 27.942112 5.60390714 29.26684597 3.125 32 C-1.56881889 35.53720801 -7.07022344 36.73949013 -12.87109375 36.00390625 C-18.67705011 34.4275842 -22.22683296 31.35783391 -25.4375 26.3125 C-27.49935331 20.12694008 -27.53479467 12.77510471 -24.75 6.8125 C-19.53146434 -2.08861934 -9.10830866 -4.47135153 0 0 Z M-15.4375 7.5625 C-16.76825929 9.55540136 -16.76825929 9.55540136 -16.4375 13.3125 C-11.4875 13.3125 -6.5375 13.3125 -1.4375 13.3125 C-2.0975 11.3325 -2.7575 9.3525 -3.4375 7.3125 C-7.15555543 5.45347228 -11.91250154 5.35937596 -15.4375 7.5625 Z " fill="#E2DFD2" transform="translate(371.4375,190.6875)"/>
<path d="M0 0 C4.29 0 8.58 0 13 0 C13 19.14 13 38.28 13 58 C9.04 58 5.08 58 1 58 C1 56.02 1 54.04 1 52 C0.01 51.67 -0.98 51.34 -2 51 C-1.835 49.72125 -1.67 48.4425 -1.5 47.125 C-0.64838799 39.13487557 -0.35947424 32.45746531 -3.44140625 24.91015625 C-4 23 -4 23 -3 20 C-2.34 20 -1.68 20 -1 20 C-0.67 13.4 -0.34 6.8 0 0 Z " fill="#F1EFE1" transform="translate(558,90)"/>
<path d="M0 0 C3.09914566 1.68926179 4.77293359 3.25510351 6.73828125 6.203125 C6.36328125 8.890625 6.36328125 8.890625 5.73828125 11.203125 C3.09828125 11.203125 0.45828125 11.203125 -2.26171875 11.203125 C-2.59171875 9.883125 -2.92171875 8.563125 -3.26171875 7.203125 C-6.56171875 7.203125 -9.86171875 7.203125 -13.26171875 7.203125 C-12.93171875 8.853125 -12.60171875 10.503125 -12.26171875 12.203125 C-11.2253125 12.44546875 -10.18890625 12.6878125 -9.12109375 12.9375 C-7.75111946 13.27530188 -6.3813376 13.61388484 -5.01171875 13.953125 C-4.32980469 14.11039063 -3.64789063 14.26765625 -2.9453125 14.4296875 C1.35423694 15.51501066 4.01478875 16.65987481 6.73828125 20.203125 C7.70786069 23.45814168 7.9000156 25.52384073 7.11328125 28.828125 C5.08609249 32.32963285 2.33094098 34.40679513 -1.26171875 36.203125 C-3.50827462 36.35289539 -5.76035643 36.42462674 -8.01171875 36.453125 C-9.2234375 36.47890625 -10.43515625 36.5046875 -11.68359375 36.53125 C-15.5866607 36.17332683 -17.9413922 35.24790088 -21.26171875 33.203125 C-23.47817075 30.24785566 -24.26171875 28.91565664 -24.26171875 25.203125 C-21.29171875 24.873125 -18.32171875 24.543125 -15.26171875 24.203125 C-14.93171875 25.523125 -14.60171875 26.843125 -14.26171875 28.203125 C-10.96171875 28.203125 -7.66171875 28.203125 -4.26171875 28.203125 C-3.93171875 26.883125 -3.60171875 25.563125 -3.26171875 24.203125 C-5.68947986 23.15109519 -8.0839942 22.24974127 -10.64453125 21.578125 C-16.0444254 20.15964534 -19.97002571 19.03094146 -23.26171875 14.203125 C-23.80885328 10.3731833 -23.59888902 8.027319 -22.13671875 4.453125 C-16.82905913 -1.91606654 -7.58918466 -2.67390962 0 0 Z " fill="#E5E1D4" transform="translate(408.26171875,189.796875)"/>
<path d="M0 0 C12.87 0 25.74 0 39 0 C39 2.64 39 5.28 39 8 C34.05 8 29.1 8 24 8 C24 21.53 24 35.06 24 49 C21.03 49 18.06 49 15 49 C14.67 35.8 14.34 22.6 14 9 C7.07 8.505 7.07 8.505 0 8 C0 5.36 0 2.72 0 0 Z " fill="#E9E7DB" transform="translate(309,177)"/>
<path d="M0 0 C3.52067351 -0.08782542 7.04106144 -0.14066643 10.5625 -0.1875 C11.55314453 -0.21263672 12.54378906 -0.23777344 13.56445312 -0.26367188 C19.48129758 -0.32264375 23.86349729 -0.06811236 29 3 C30.4375 5.1875 30.4375 5.1875 31 7 C30.38253906 7.53367187 29.76507813 8.06734375 29.12890625 8.6171875 C23.86853371 13.24503427 19.06685449 18.02869821 14.44921875 23.29296875 C9.83615599 28.39161706 4.89782572 33.17676046 0 38 C-1.31134718 34.09686563 -1.03043509 30.22457296 -0.87890625 26.171875 C-0.85529526 25.42286926 -0.83168427 24.67386353 -0.80735779 23.90216064 C-0.73099344 21.51790112 -0.64685283 19.13398895 -0.5625 16.75 C-0.50925201 15.13022514 -0.4565118 13.51043349 -0.40429688 11.890625 C-0.27541537 7.92686479 -0.13956072 3.96339799 0 0 Z " fill="#E4E1D5" transform="translate(184,76)"/>
<path d="M0 0 C6.15234375 -0.09765625 6.15234375 -0.09765625 8 0 C9 1 9 1 9.09765625 2.84765625 C9.04882812 5.92382812 9.04882812 5.92382812 9 9 C9.969375 8.979375 10.93875 8.95875 11.9375 8.9375 C15 9 15 9 16 10 C16.125 13 16.125 13 16 16 C15.67 16.33 15.34 16.66 15 17 C13.02 17 11.04 17 9 17 C9.33 23.6 9.66 30.2 10 37 C11.98 37.66 13.96 38.32 16 39 C16 41.31 16 43.62 16 46 C14.41705218 46.05437607 12.83355744 46.09296271 11.25 46.125 C10.36828125 46.14820313 9.4865625 46.17140625 8.578125 46.1953125 C5.82009905 45.98637114 4.30096477 45.51063339 2 44 C-0.26598448 40.60102327 -0.23742654 39.43680827 -0.1953125 35.45703125 C-0.18564453 33.84731445 -0.18564453 33.84731445 -0.17578125 32.20507812 C-0.15902344 31.08552734 -0.14226562 29.96597656 -0.125 28.8125 C-0.11597656 27.68134766 -0.10695313 26.55019531 -0.09765625 25.38476562 C-0.07406862 22.58963172 -0.041153 19.79492155 0 17 C-0.804375 17.020625 -1.60875 17.04125 -2.4375 17.0625 C-5 17 -5 17 -6 16 C-6.125 13 -6.125 13 -6 10 C-5 9 -5 9 -2.4375 8.9375 C-1.633125 8.958125 -0.82875 8.97875 0 9 C0 6.03 0 3.06 0 0 Z " fill="#E1DED1" transform="translate(425,180)"/>
<path d="M0 0 C2.64 0 5.28 0 8 0 C8.66 0.99 9.32 1.98 10 3 C10.515625 2.505 11.03125 2.01 11.5625 1.5 C14.80680017 -0.49649241 17.26217334 -0.21564385 21 0 C21 2.97 21 5.94 21 9 C17.58203125 9.24414062 17.58203125 9.24414062 14.1640625 9.48828125 C11.62078662 9.82990528 11.62078662 9.82990528 10 13 C9.63250611 15.61289494 9.63250611 15.61289494 9.5859375 18.54296875 C9.52792969 20.15268555 9.52792969 20.15268555 9.46875 21.79492188 C9.42234375 23.47424805 9.42234375 23.47424805 9.375 25.1875 C9.31699219 26.88422852 9.31699219 26.88422852 9.2578125 28.61523438 C9.16347467 31.4099925 9.07788348 34.20474278 9 37 C6.03 37 3.06 37 0 37 C0 24.79 0 12.58 0 0 Z " fill="#E4E2D5" transform="translate(486,189)"/>
<path d="M0 0 C1.98 0.99 1.98 0.99 4 2 C3.67 2.33 3.34 2.66 3 3 C2.90666295 4.59610982 2.88254628 6.19633428 2.88647461 7.79516602 C2.88655014 8.81614883 2.88662567 9.83713165 2.88670349 10.88905334 C2.89186478 11.9994548 2.89702606 13.10985626 2.90234375 14.25390625 C2.9037587 15.38448959 2.90517365 16.51507294 2.90663147 17.67991638 C2.91224981 21.30747065 2.92480542 24.93496424 2.9375 28.5625 C2.94251264 31.01497307 2.94707595 33.4674471 2.95117188 35.91992188 C2.9622252 41.94663545 2.97898116 47.97331339 3 54 C5.97 54.33 8.94 54.66 12 55 C12 50.05 12 45.1 12 40 C12.33 40 12.66 40 13 40 C13 45.28 13 50.56 13 56 C8.71 56 4.42 56 0 56 C0 37.52 0 19.04 0 0 Z " fill="#C8C8C0" transform="translate(311,92)"/>
<path d="M0 0 C0 2.97 0 5.94 0 9 C-1.59987236 9.27615058 -3.205333 9.52007625 -4.8125 9.75 C-5.70582031 9.88921875 -6.59914063 10.0284375 -7.51953125 10.171875 C-10 10 -10 10 -11.8125 8.1875 C-13.21712593 5.60003118 -13.24182753 3.90193042 -13 1 C-12.34 1.66 -11.68 2.32 -11 3 C-10.484375 2.505 -9.96875 2.01 -9.4375 1.5 C-6.19319983 -0.49649241 -3.73782666 -0.21564385 0 0 Z " fill="#DAD8CB" transform="translate(507,189)"/>
<path d="M0 0 C0.66 0 1.32 0 2 0 C2.33 7.92 2.66 15.84 3 24 C21.81 24.495 21.81 24.495 41 25 C41 25.33 41 25.66 41 26 C35.32169922 26.02464705 29.64342931 26.04283462 23.96508789 26.05493164 C22.03181415 26.05997256 20.09854424 26.06680519 18.1652832 26.07543945 C15.39273128 26.08751565 12.62022959 26.09323057 9.84765625 26.09765625 C8.54297142 26.10539818 8.54297142 26.10539818 7.21192932 26.11329651 C5.14094186 26.11349185 3.07005676 26.06208168 1 26 C0 25 0 25 -0.11352539 22.59155273 C-0.10828857 21.54942627 -0.10305176 20.5072998 -0.09765625 19.43359375 C-0.09443359 18.30888672 -0.09121094 17.18417969 -0.08789062 16.02539062 C-0.07951172 14.84138672 -0.07113281 13.65738281 -0.0625 12.4375 C-0.05798828 11.24962891 -0.05347656 10.06175781 -0.04882812 8.83789062 C-0.03699675 5.89187774 -0.02051287 2.94596319 0 0 Z " fill="#B1B0A7" transform="translate(71,46)"/>
<path d="M0 0 C0.33 0 0.66 0 1 0 C1 17.82 1 35.64 1 54 C1.99 54.33 2.98 54.66 4 55 C3.67 55.99 3.34 56.98 3 58 C2.34 58 1.68 58 1 58 C-0.02612598 54.92162206 -0.12090219 52.83425704 -0.11352539 49.6105957 C-0.11344986 48.50968094 -0.11337433 47.40876617 -0.11329651 46.27449036 C-0.10813522 45.08691635 -0.10297394 43.89934235 -0.09765625 42.67578125 C-0.0962413 41.45924362 -0.09482635 40.24270599 -0.09336853 38.98930359 C-0.08776312 35.0970109 -0.07520967 31.20477536 -0.0625 27.3125 C-0.0574857 24.67643312 -0.05292267 22.04036534 -0.04882812 19.40429688 C-0.03779193 12.93617836 -0.0210485 6.46809326 0 0 Z " fill="#B8B6A8" transform="translate(72,165)"/>
<path d="M0 0 C6.93 0 13.86 0 21 0 C21 0.33 21 0.66 21 1 C19.06833984 1.09087891 19.06833984 1.09087891 17.09765625 1.18359375 C15.41925841 1.26798247 13.74087364 1.3526313 12.0625 1.4375 C10.78729492 1.49647461 10.78729492 1.49647461 9.48632812 1.55664062 C8.67744141 1.59853516 7.86855469 1.64042969 7.03515625 1.68359375 C5.91185913 1.73858032 5.91185913 1.73858032 4.76586914 1.79467773 C2.97538674 1.81771063 2.97538674 1.81771063 2 3 C1.84193469 4.92478813 1.748865 6.8549921 1.68359375 8.78515625 C1.64169922 9.95498047 1.59980469 11.12480469 1.55664062 12.33007812 C1.51732422 13.56177734 1.47800781 14.79347656 1.4375 16.0625 C1.39431641 17.29806641 1.35113281 18.53363281 1.30664062 19.80664062 C1.20015802 22.87097335 1.09814576 25.93539073 1 29 C0.67 29 0.34 29 0 29 C0 19.43 0 9.86 0 0 Z " fill="#FAF7ED" transform="translate(185,77)"/>
<path d="M0 0 C0.8971875 0.309375 0.8971875 0.309375 1.8125 0.625 C1.02875 1.223125 0.245 1.82125 -0.5625 2.4375 C-4.99762882 6.13344069 -5.55634419 9.04979034 -6.1875 14.625 C-7.1775 14.295 -8.1675 13.965 -9.1875 13.625 C-8.72145685 8.87135987 -8.06000217 5.49182984 -5.1875 1.625 C-2.1875 -0.375 -2.1875 -0.375 0 0 Z " fill="#E4E1D5" transform="translate(688.1875,107.375)"/>
<path d="M0 0 C0.66 0.33 1.32 0.66 2 1 C1.01 2.32 0.02 3.64 -1 5 C-0.01 6.485 -0.01 6.485 1 8 C0.34 8.66 -0.32 9.32 -1 10 C-1.40047444 12.32275177 -1.7397104 14.65739357 -2 17 C-2.33 17 -2.66 17 -3 17 C-5.67533632 7.42331839 -5.67533632 7.42331839 -4.01953125 3.93359375 C-2.625 2.3125 -2.625 2.3125 0 0 Z " fill="#CDC7BE" transform="translate(156,150)"/>
<path d="M0 0 C0.33 0 0.66 0 1 0 C1 6.93 1 13.86 1 21 C1.99 21.33 2.98 21.66 4 22 C3.67 22.99 3.34 23.98 3 25 C2.34 25 1.68 25 1 25 C-0.00005304 21.99984088 -0.11575585 20.02576244 -0.09765625 16.89453125 C-0.09443359 15.91162109 -0.09121094 14.92871094 -0.08789062 13.91601562 C-0.07951172 12.89185547 -0.07113281 11.86769531 -0.0625 10.8125 C-0.05798828 9.77673828 -0.05347656 8.74097656 -0.04882812 7.67382812 C-0.0370401 5.11582734 -0.02058515 2.55794267 0 0 Z " fill="#C5C1B5" transform="translate(72,198)"/>
<path d="M0 0 C2.9375 0.375 2.9375 0.375 6 1 C7 3 7 3 6.0625 6.125 C5.711875 7.07375 5.36125 8.0225 5 9 C1.96130589 7.48065294 1.35589694 5.01995228 0 2 C0 1.34 0 0.68 0 0 Z " fill="#D4CEC1" transform="translate(165,187)"/>
<path d="M0 0 C-1.5830577 4.2742558 -4.50568404 6.26531794 -8 9 C-8.66 8.34 -9.32 7.68 -10 7 C-8.90536178 5.82438854 -7.79892814 4.6597511 -6.6875 3.5 C-6.07261719 2.8503125 -5.45773438 2.200625 -4.82421875 1.53125 C-3 0 -3 0 0 0 Z " fill="#E1DDCE" transform="translate(188,136)"/>
<path d="M0 0 C5.61 0 11.22 0 17 0 C17 0.33 17 0.66 17 1 C12.38 1 7.76 1 3 1 C2.34 2.32 1.68 3.64 1 5 C0.01 5.66 -0.98 6.32 -2 7 C-1.34 4.69 -0.68 2.38 0 0 Z " fill="#DAD9CD" transform="translate(455,92)"/>
<path d="M0 0 C0 3 0 3 -1.71484375 4.90234375 C-3.193901 6.25662992 -4.67306728 7.61079703 -6.15234375 8.96484375 C-8.05106103 11.0562427 -8.61175486 12.24530829 -9 15 C-9.66 13.68 -10.32 12.36 -11 11 C-7.37 7.37 -3.74 3.74 0 0 Z " fill="#ACABA1" transform="translate(61,245)"/>
<path d="M0 0 C1.74627478 2.61941217 2.38722388 4.03824877 3 7 C-0.37462715 6.45276317 -2.08235 5.9451 -5 4 C-3.35 3.34 -1.7 2.68 0 2 C0 1.34 0 0.68 0 0 Z " fill="#CBC8BD" transform="translate(166,247)"/>
<path d="M0 0 C0.99 0.33 1.98 0.66 3 1 C-1.625 5.875 -1.625 5.875 -5 7 C-3.75023244 3.34683329 -3.32901247 2.21934164 0 0 Z " fill="#DAD5C9" transform="translate(452,192)"/>
<path d="M0 0 C0.66 0 1.32 0 2 0 C1.67 1.65 1.34 3.3 1 5 C-1.64 5 -4.28 5 -7 5 C-6.401875 4.731875 -5.80375 4.46375 -5.1875 4.1875 C-2.95672092 3.1106021 -2.95672092 3.1106021 -1.375 1.375 C-0.694375 0.694375 -0.694375 0.694375 0 0 Z " fill="#AFAA9F" transform="translate(413,196)"/>
<path d="M0 0 C0.66 0 1.32 0 2 0 C2.66 1.98 3.32 3.96 4 6 C-1.75 4.25 -1.75 4.25 -4 2 C-2.68 2 -1.36 2 0 2 C0 1.34 0 0.68 0 0 Z " fill="#C8C3B9" transform="translate(157,186)"/>
<path d="M0 0 C3 1 3 1 5 4 C4.625 6.1875 4.625 6.1875 4 8 C0 3.375 0 3.375 0 0 Z " fill="#D3D1C7" transform="translate(679,138)"/>
<path d="M0 0 C0.99 0.33 1.98 0.66 3 1 C1.8125 3 1.8125 3 0 5 C-2.6875 5.25 -2.6875 5.25 -5 5 C-3.35 3.35 -1.7 1.7 0 0 Z " fill="#DBD5CA" transform="translate(354,190)"/>
<path d="M0 0 C0.33 0.66 0.66 1.32 1 2 C0.67 2.66 0.34 3.32 0 4 C1.32 4.66 2.64 5.32 4 6 C1.36 6 -1.28 6 -4 6 C-2.84826645 3.53199953 -1.95216435 1.95216435 0 0 Z " fill="#A5A39A" transform="translate(168,164)"/>
<path d="M0 0 C0.66 0 1.32 0 2 0 C2.33 1.65 2.66 3.3 3 5 C3.66 4.67 4.32 4.34 5 4 C4.6875 5.9375 4.6875 5.9375 4 8 C3.01 8.33 2.02 8.66 1 9 C0.67 6.03 0.34 3.06 0 0 Z " fill="#B8B3AA" transform="translate(158,156)"/>
<path d="M0 0 C0.33 0.66 0.66 1.32 1 2 C-0.32 3.65 -1.64 5.3 -3 7 C-3.99 6.67 -4.98 6.34 -6 6 C-4.02 4.02 -2.04 2.04 0 0 Z " fill="#E0DDCE" transform="translate(125,206)"/>
<path d="M0 0 C1.98 0.99 1.98 0.99 4 2 C3.34 3.65 2.68 5.3 2 7 C1.34 7 0.68 7 0 7 C0 4.69 0 2.38 0 0 Z " fill="#C8C2B7" transform="translate(142,190)"/>
<path d="M0 0 C0.99 0.33 1.98 0.66 3 1 C2.01 1.66 1.02 2.32 0 3 C0.66 3.66 1.32 4.32 2 5 C-0.97 4.505 -0.97 4.505 -4 4 C-2.68 2.68 -1.36 1.36 0 0 Z " fill="#BDB8AB" transform="translate(171,178)"/>
<path d="M0 0 C0.33 0 0.66 0 1 0 C1 2.31 1 4.62 1 7 C0.01 6.67 -0.98 6.34 -2 6 C-1.125 1.125 -1.125 1.125 0 0 Z " fill="#DBD6C9" transform="translate(681,115)"/>
<path d="M0 0 C1.875 0.3125 1.875 0.3125 4 1 C4.66 1.99 5.32 2.98 6 4 C2.89448334 4 1.64738916 3.4606285 -1 2 C-0.67 1.34 -0.34 0.68 0 0 Z " fill="#DDDACE" transform="translate(550,106)"/>
</svg>
